<svg width="1297" height="542" viewBox="0 0 1297 542" fill="none" xmlns="http://www.w3.org/2000/svg">
<g clip-path="url(#clip0_322_216)">
<rect width="1297" height="671" fill="url(#paint0_linear_322_216)"/>
<path d="M914.911 821.716C896.286 821.716 862.873 828.672 850.759 843.565C831.188 867.627 802.122 882.876 769.672 882.876C710.739 882.876 662.965 832.582 662.965 770.541C662.965 708.501 710.739 658.207 769.672 658.207C801.664 658.207 830.368 673.028 849.925 696.505C862.306 711.366 896.134 718.118 914.911 718.118C932.837 718.118 971.915 710.219 983.799 696.092C1003.35 672.855 1031.9 658.207 1063.71 658.207C1122.64 658.207 1170.41 708.501 1170.41 770.541C1170.41 832.582 1122.64 882.876 1063.71 882.876C1031.46 882.876 1002.55 867.813 982.981 844.006C971.336 829.837 932.709 821.716 914.911 821.716Z" fill="url(#paint1_linear_322_216)"/>
<path d="M962.929 592.678C962.929 619.218 942.493 640.732 917.283 640.732C892.073 640.732 871.636 619.218 871.636 592.678C871.636 566.138 892.073 544.624 917.283 544.624C942.493 544.624 962.929 566.138 962.929 592.678Z" fill="url(#paint2_linear_322_216)"/>
<path d="M967.708 1122.94C952.618 1126.98 926.978 1139.58 920.229 1153.65C909.326 1176.38 888.915 1194.4 862.624 1201.45C814.876 1214.24 765.815 1185.97 753.042 1138.31C740.27 1090.65 768.623 1041.65 816.371 1028.85C842.292 1021.91 868.599 1027.07 889.278 1040.85C902.369 1049.58 931.167 1047.43 946.38 1043.35C960.904 1039.46 990.939 1024.91 997.66 1011.48C1008.72 989.383 1028.83 971.933 1054.6 965.029C1102.35 952.237 1151.41 980.503 1164.18 1028.16C1176.96 1075.82 1148.6 1124.83 1100.86 1137.62C1074.73 1144.62 1048.2 1139.33 1027.45 1125.29C1015.1 1116.93 982.128 1119.07 967.708 1122.94Z" fill="url(#paint3_linear_322_216)"/>
<path d="M959.461 936.565C964.924 956.953 952.795 977.916 932.37 983.389C911.945 988.861 890.957 976.769 885.493 956.381C880.03 935.993 892.159 915.029 912.584 909.557C933.01 904.085 953.997 916.176 959.461 936.565Z" fill="url(#paint4_linear_322_216)"/>
<path d="M1111.98 1390.28C1101.66 1396.24 1085.26 1410.58 1083.06 1422.28C1079.52 1441.18 1068.04 1458.49 1050.06 1468.87C1017.41 1487.72 975.678 1476.58 956.858 1443.98C938.037 1411.39 949.251 1369.69 981.904 1350.84C999.63 1340.61 1020.03 1339.21 1037.99 1345.29C1049.36 1349.14 1070.15 1341.87 1080.55 1335.86C1090.48 1330.13 1109.74 1313.48 1112.04 1302.25C1115.82 1283.79 1127.2 1266.96 1144.82 1256.79C1177.48 1237.94 1219.2 1249.08 1238.02 1281.68C1256.84 1314.27 1245.63 1355.97 1212.98 1374.82C1195.11 1385.14 1174.52 1386.47 1156.46 1380.22C1145.71 1376.5 1121.84 1384.59 1111.98 1390.28Z" fill="url(#paint5_linear_322_216)"/>
<path d="M1069.1 1254.6C1077.16 1268.54 1072.36 1286.38 1058.39 1294.45C1044.42 1302.51 1026.57 1297.74 1018.52 1283.8C1010.47 1269.86 1015.27 1252.02 1029.24 1243.96C1043.2 1235.89 1061.05 1240.66 1069.1 1254.6Z" fill="url(#paint6_linear_322_216)"/>
<path d="M934.741 422.49C911.893 416.369 868.733 413.492 849.222 426.863C817.701 448.466 777.283 456.679 737.476 446.014C665.183 426.646 622.28 352.347 641.651 280.064C661.022 207.78 735.331 164.883 807.625 184.252C846.871 194.766 877.455 221.468 894.117 255.248C904.664 276.633 944.054 295.617 967.088 301.788C989.077 307.68 1039.48 311.319 1058.47 298.766C1089.71 278.117 1129.31 270.435 1168.33 280.888C1240.62 300.256 1283.52 374.555 1264.15 446.838C1244.78 519.122 1170.47 562.019 1098.18 542.65C1058.61 532.051 1027.85 505 1011.28 470.832C1001.42 450.497 956.574 428.339 934.741 422.49Z" fill="url(#paint7_linear_322_216)"/>
<path d="M1065.16 171.419C1056.87 202.341 1025.08 220.691 994.159 212.405C963.233 204.12 944.881 172.337 953.167 141.415C961.454 110.494 993.241 92.1437 1024.17 100.429C1055.09 108.714 1073.45 140.498 1065.16 171.419Z" fill="url(#paint8_linear_322_216)"/>
<path d="M1087.9 37.2567C1066.74 25.0408 1024.45 10.6316 1001.4 18.7583C964.173 31.8875 921.646 29.278 884.778 7.99484C817.82 -30.6578 794.879 -116.264 833.537 -183.212C872.195 -250.161 957.813 -273.099 1024.77 -234.446C1061.12 -213.463 1084.5 -178.643 1092.09 -140.482C1096.9 -116.325 1131.12 -86.8511 1152.46 -74.5356C1172.82 -62.7787 1222.15 -45.6727 1244.45 -53.122C1281.14 -65.3754 1322.71 -62.4537 1358.85 -41.5938C1425.81 -2.9412 1448.75 82.6652 1410.09 149.613C1371.43 216.562 1285.81 239.5 1218.85 200.847C1182.21 179.695 1158.75 144.48 1151.35 105.956C1146.95 83.0287 1108.13 48.9297 1087.9 37.2567Z" fill="url(#paint9_linear_322_216)"/>
<path d="M1285.18 -178.404C1268.64 -149.765 1232.01 -139.953 1203.37 -156.488C1174.73 -173.023 1164.91 -209.643 1181.45 -238.282C1197.99 -266.921 1234.61 -276.733 1263.26 -260.199C1291.9 -243.664 1301.71 -207.043 1285.18 -178.404Z" fill="url(#paint10_linear_322_216)"/>
<path d="M1324.25 -345.916C1300 -359.916 1251.52 -376.431 1225.11 -367.117C1182.44 -352.069 1133.7 -355.06 1091.44 -379.453C1014.7 -423.754 988.407 -521.87 1032.71 -598.601C1077.02 -675.332 1175.15 -701.622 1251.89 -657.321C1293.55 -633.272 1320.35 -593.363 1329.05 -549.626C1334.56 -521.939 1373.79 -488.158 1398.24 -474.043C1421.58 -460.568 1478.11 -440.963 1503.67 -449.501C1545.73 -463.545 1593.37 -460.196 1634.79 -436.288C1711.53 -391.987 1737.82 -293.872 1693.51 -217.141C1649.21 -140.41 1551.08 -114.12 1474.34 -158.42C1432.34 -182.664 1405.45 -223.025 1396.97 -267.178C1391.93 -293.455 1347.43 -332.537 1324.25 -345.916Z" fill="url(#paint11_linear_322_216)"/>
<path d="M1550.35 -593.09C1531.4 -560.266 1489.42 -549.02 1456.59 -567.971C1423.76 -586.922 1412.51 -628.893 1431.47 -661.717C1450.42 -694.541 1492.4 -705.787 1525.23 -686.837C1558.06 -667.886 1569.3 -625.914 1550.35 -593.09Z" fill="url(#paint12_linear_322_216)"/>
<path d="M1477.94 -833.562C1451.04 -833.562 1402.77 -824.287 1385.28 -804.429C1357.01 -772.347 1315.02 -752.015 1268.15 -752.015C1183.02 -752.015 1114.02 -819.074 1114.02 -901.795C1114.02 -984.516 1183.02 -1051.57 1268.15 -1051.57C1314.36 -1051.57 1355.82 -1031.81 1384.07 -1000.51C1401.95 -980.695 1450.82 -971.692 1477.94 -971.692C1503.83 -971.692 1560.28 -982.224 1577.44 -1001.06C1605.68 -1032.04 1646.93 -1051.57 1692.87 -1051.57C1777.99 -1051.57 1847 -984.516 1847 -901.795C1847 -819.074 1777.99 -752.015 1692.87 -752.015C1646.28 -752.015 1604.53 -772.098 1576.26 -803.841C1559.44 -822.733 1503.65 -833.562 1477.94 -833.562Z" fill="url(#paint13_linear_322_216)"/>
<path d="M1547.3 -1138.95C1547.3 -1103.56 1517.78 -1074.87 1481.36 -1074.87C1444.95 -1074.87 1415.43 -1103.56 1415.43 -1138.95C1415.43 -1174.33 1444.95 -1203.02 1481.36 -1203.02C1517.78 -1203.02 1547.3 -1174.33 1547.3 -1138.95Z" fill="url(#paint14_linear_322_216)"/>
<path d="M1426.23 -1300.07C1399.18 -1292.83 1353.22 -1270.23 1341.14 -1244.97C1321.61 -1204.16 1285.03 -1171.82 1237.9 -1159.19C1152.3 -1136.26 1064.32 -1187.05 1041.39 -1272.63C1018.45 -1358.21 1069.25 -1446.18 1154.84 -1469.11C1201.31 -1481.56 1248.48 -1472.28 1285.56 -1447.51C1309.04 -1431.83 1360.66 -1435.68 1387.94 -1442.98C1413.97 -1449.96 1467.81 -1476.06 1479.85 -1500.17C1499.65 -1539.83 1535.71 -1571.15 1581.9 -1583.53C1667.5 -1606.46 1755.48 -1555.67 1778.41 -1470.09C1801.35 -1384.51 1750.55 -1296.54 1664.96 -1273.61C1618.12 -1261.06 1570.56 -1270.59 1533.34 -1295.81C1511.19 -1310.83 1452.08 -1307 1426.23 -1300.07Z" fill="url(#paint15_linear_322_216)"/>
<path d="M1411.31 -1634.71C1421.12 -1598.1 1399.39 -1560.47 1362.77 -1550.66C1326.16 -1540.85 1288.52 -1562.57 1278.71 -1599.18C1268.9 -1635.79 1290.63 -1673.42 1327.24 -1683.23C1363.86 -1693.04 1401.5 -1671.32 1411.31 -1634.71Z" fill="url(#paint16_linear_322_216)"/>
<path d="M1238.51 -1767.33C1216.03 -1754.36 1180.3 -1723.1 1175.54 -1697.59C1167.84 -1656.37 1142.85 -1618.63 1103.69 -1596.02C1032.56 -1554.96 941.601 -1579.33 900.533 -1650.45C859.466 -1721.57 883.837 -1812.51 954.968 -1853.58C993.583 -1875.87 1038.04 -1878.88 1077.19 -1865.59C1101.97 -1857.18 1147.27 -1873.01 1169.93 -1886.09C1191.57 -1898.58 1233.5 -1934.87 1238.5 -1959.34C1246.71 -1999.6 1271.48 -2036.29 1309.87 -2058.45C1381 -2099.51 1471.95 -2075.14 1513.02 -2004.02C1554.09 -1932.9 1529.72 -1841.96 1458.59 -1800.9C1419.66 -1778.43 1374.8 -1775.55 1335.42 -1789.21C1311.99 -1797.34 1259.99 -1779.73 1238.51 -1767.33Z" fill="url(#paint17_linear_322_216)"/>
<path d="M1144.85 -2063.35C1162.42 -2032.93 1151.99 -1994.02 1121.57 -1976.46C1091.14 -1958.89 1052.23 -1969.32 1034.66 -1999.74C1017.09 -2030.16 1027.52 -2069.07 1057.95 -2086.63C1088.38 -2104.2 1127.28 -2093.77 1144.85 -2063.35Z" fill="url(#paint18_linear_322_216)"/>
<path d="M1052.55 -2199.63C1029.37 -2193.42 989.986 -2174.06 979.626 -2152.41C962.89 -2117.44 931.543 -2089.72 891.154 -2078.9C817.804 -2059.25 742.409 -2102.77 722.755 -2176.11C703.101 -2249.45 746.63 -2324.84 819.98 -2344.49C859.8 -2355.16 900.221 -2347.21 932.001 -2325.98C952.119 -2312.54 996.362 -2315.84 1019.73 -2322.1C1042.04 -2328.08 1088.18 -2350.44 1098.5 -2371.11C1115.47 -2405.1 1146.37 -2431.93 1185.95 -2442.54C1259.3 -2462.19 1334.7 -2418.67 1354.35 -2345.33C1374.01 -2271.99 1330.48 -2196.6 1257.13 -2176.95C1216.99 -2166.2 1176.23 -2174.36 1144.34 -2195.98C1125.35 -2208.85 1074.7 -2205.57 1052.55 -2199.63Z" fill="url(#paint19_linear_322_216)"/>
<path d="M1039.76 -2486.4C1048.17 -2455.02 1029.55 -2422.78 998.169 -2414.37C966.791 -2405.96 934.539 -2424.58 926.131 -2455.95C917.723 -2487.33 936.344 -2519.58 967.722 -2527.98C999.1 -2536.39 1031.35 -2517.77 1039.76 -2486.4Z" fill="url(#paint20_linear_322_216)"/>
<path d="M1170.4 1474.81C1170.4 1490.38 1157.78 1503 1142.21 1503C1126.64 1503 1114.02 1490.38 1114.02 1474.81C1114.02 1459.24 1126.64 1446.62 1142.21 1446.62C1157.78 1446.62 1170.4 1459.24 1170.4 1474.81Z" fill="url(#paint21_linear_322_216)"/>
</g>
<defs>
<linearGradient id="paint0_linear_322_216" x1="648.5" y1="0" x2="648.5" y2="671" gradientUnits="userSpaceOnUse">
<stop stop-color="#599AA6"/>
<stop offset="1" stop-color="#78CFE2"/>
</linearGradient>
<linearGradient id="paint1_linear_322_216" x1="1242" y1="-2530" x2="1242" y2="1503" gradientUnits="userSpaceOnUse">
<stop stop-color="#589BA6"/>
<stop offset="1" stop-color="#78CFE2"/>
</linearGradient>
<linearGradient id="paint2_linear_322_216" x1="1242" y1="-2530" x2="1242" y2="1503" gradientUnits="userSpaceOnUse">
<stop stop-color="#589BA6"/>
<stop offset="1" stop-color="#78CFE2"/>
</linearGradient>
<linearGradient id="paint3_linear_322_216" x1="1242" y1="-2530" x2="1242" y2="1503" gradientUnits="userSpaceOnUse">
<stop stop-color="#589BA6"/>
<stop offset="1" stop-color="#78CFE2"/>
</linearGradient>
<linearGradient id="paint4_linear_322_216" x1="1242" y1="-2530" x2="1242" y2="1503" gradientUnits="userSpaceOnUse">
<stop stop-color="#589BA6"/>
<stop offset="1" stop-color="#78CFE2"/>
</linearGradient>
<linearGradient id="paint5_linear_322_216" x1="1242" y1="-2530" x2="1242" y2="1503" gradientUnits="userSpaceOnUse">
<stop stop-color="#589BA6"/>
<stop offset="1" stop-color="#78CFE2"/>
</linearGradient>
<linearGradient id="paint6_linear_322_216" x1="1242" y1="-2530" x2="1242" y2="1503" gradientUnits="userSpaceOnUse">
<stop stop-color="#589BA6"/>
<stop offset="1" stop-color="#78CFE2"/>
</linearGradient>
<linearGradient id="paint7_linear_322_216" x1="1242" y1="-2530" x2="1242" y2="1503" gradientUnits="userSpaceOnUse">
<stop stop-color="#589BA6"/>
<stop offset="1" stop-color="#78CFE2"/>
</linearGradient>
<linearGradient id="paint8_linear_322_216" x1="1242" y1="-2530" x2="1242" y2="1503" gradientUnits="userSpaceOnUse">
<stop stop-color="#589BA6"/>
<stop offset="1" stop-color="#78CFE2"/>
</linearGradient>
<linearGradient id="paint9_linear_322_216" x1="1242" y1="-2530" x2="1242" y2="1503" gradientUnits="userSpaceOnUse">
<stop stop-color="#589BA6"/>
<stop offset="1" stop-color="#78CFE2"/>
</linearGradient>
<linearGradient id="paint10_linear_322_216" x1="1242" y1="-2530" x2="1242" y2="1503" gradientUnits="userSpaceOnUse">
<stop stop-color="#589BA6"/>
<stop offset="1" stop-color="#78CFE2"/>
</linearGradient>
<linearGradient id="paint11_linear_322_216" x1="1242" y1="-2530" x2="1242" y2="1503" gradientUnits="userSpaceOnUse">
<stop stop-color="#589BA6"/>
<stop offset="1" stop-color="#78CFE2"/>
</linearGradient>
<linearGradient id="paint12_linear_322_216" x1="1242" y1="-2530" x2="1242" y2="1503" gradientUnits="userSpaceOnUse">
<stop stop-color="#589BA6"/>
<stop offset="1" stop-color="#78CFE2"/>
</linearGradient>
<linearGradient id="paint13_linear_322_216" x1="1242" y1="-2530" x2="1242" y2="1503" gradientUnits="userSpaceOnUse">
<stop stop-color="#589BA6"/>
<stop offset="1" stop-color="#78CFE2"/>
</linearGradient>
<linearGradient id="paint14_linear_322_216" x1="1242" y1="-2530" x2="1242" y2="1503" gradientUnits="userSpaceOnUse">
<stop stop-color="#589BA6"/>
<stop offset="1" stop-color="#78CFE2"/>
</linearGradient>
<linearGradient id="paint15_linear_322_216" x1="1242" y1="-2530" x2="1242" y2="1503" gradientUnits="userSpaceOnUse">
<stop stop-color="#589BA6"/>
<stop offset="1" stop-color="#78CFE2"/>
</linearGradient>
<linearGradient id="paint16_linear_322_216" x1="1242" y1="-2530" x2="1242" y2="1503" gradientUnits="userSpaceOnUse">
<stop stop-color="#589BA6"/>
<stop offset="1" stop-color="#78CFE2"/>
</linearGradient>
<linearGradient id="paint17_linear_322_216" x1="1242" y1="-2530" x2="1242" y2="1503" gradientUnits="userSpaceOnUse">
<stop stop-color="#589BA6"/>
<stop offset="1" stop-color="#78CFE2"/>
</linearGradient>
<linearGradient id="paint18_linear_322_216" x1="1242" y1="-2530" x2="1242" y2="1503" gradientUnits="userSpaceOnUse">
<stop stop-color="#589BA6"/>
<stop offset="1" stop-color="#78CFE2"/>
</linearGradient>
<linearGradient id="paint19_linear_322_216" x1="1242" y1="-2530" x2="1242" y2="1503" gradientUnits="userSpaceOnUse">
<stop stop-color="#589BA6"/>
<stop offset="1" stop-color="#78CFE2"/>
</linearGradient>
<linearGradient id="paint20_linear_322_216" x1="1242" y1="-2530" x2="1242" y2="1503" gradientUnits="userSpaceOnUse">
<stop stop-color="#589BA6"/>
<stop offset="1" stop-color="#78CFE2"/>
</linearGradient>
<linearGradient id="paint21_linear_322_216" x1="1242" y1="-2530" x2="1242" y2="1503" gradientUnits="userSpaceOnUse">
<stop stop-color="#589BA6"/>
<stop offset="1" stop-color="#78CFE2"/>
</linearGradient>
<clipPath id="clip0_322_216">
<rect width="1297" height="542" fill="white"/>
</clipPath>
</defs>
</svg>
