<svg width="372" height="421" viewBox="0 0 372 421" fill="none" xmlns="http://www.w3.org/2000/svg">
<g clip-path="url(#clip0_322_117)">
<rect width="476" height="583" fill="url(#paint0_linear_322_117)"/>
<path d="M-89.0886 1521.72C-107.714 1521.72 -141.127 1528.67 -153.241 1543.57C-172.812 1567.63 -201.878 1582.88 -234.328 1582.88C-293.261 1582.88 -341.035 1532.58 -341.035 1470.54C-341.035 1408.5 -293.261 1358.21 -234.328 1358.21C-202.336 1358.21 -173.632 1373.03 -154.075 1396.5C-141.694 1411.37 -107.866 1418.12 -89.0886 1418.12C-71.1632 1418.12 -32.0853 1410.22 -20.2005 1396.09C-0.6511 1372.85 27.9035 1358.21 59.7079 1358.21C118.64 1358.21 166.415 1408.5 166.415 1470.54C166.415 1532.58 118.64 1582.88 59.7079 1582.88C27.4568 1582.88 -1.45252 1567.81 -21.0189 1544.01C-32.6638 1529.84 -71.2912 1521.72 -89.0886 1521.72Z" fill="url(#paint1_linear_322_117)"/>
<path d="M-41.0706 1292.68C-41.0706 1319.22 -61.5074 1340.73 -86.7174 1340.73C-111.927 1340.73 -132.364 1319.22 -132.364 1292.68C-132.364 1266.14 -111.927 1244.62 -86.7174 1244.62C-61.5074 1244.62 -41.0706 1266.14 -41.0706 1292.68Z" fill="url(#paint2_linear_322_117)"/>
<path d="M-36.292 1822.94C-51.3824 1826.98 -77.0223 1839.58 -83.7709 1853.65C-94.6738 1876.38 -115.085 1894.4 -141.376 1901.45C-189.124 1914.24 -238.185 1885.97 -250.958 1838.31C-263.73 1790.65 -235.377 1741.65 -187.629 1728.85C-161.708 1721.91 -135.401 1727.07 -114.722 1740.85C-101.631 1749.58 -72.8331 1747.43 -57.6197 1743.35C-43.0963 1739.46 -13.0612 1724.91 -6.34029 1711.48C4.71502 1689.38 24.8347 1671.93 50.603 1665.03C98.3509 1652.24 147.412 1680.5 160.185 1728.16C172.957 1775.82 144.604 1824.83 96.8559 1837.62C70.7256 1844.62 44.202 1839.33 23.4479 1825.29C11.096 1816.93 -21.8723 1819.07 -36.292 1822.94Z" fill="url(#paint3_linear_322_117)"/>
<path d="M-44.5394 1636.56C-39.0757 1656.95 -51.2046 1677.92 -71.63 1683.39C-92.0555 1688.86 -113.043 1676.77 -118.507 1656.38C-123.97 1635.99 -111.841 1615.03 -91.4159 1609.56C-70.9905 1604.08 -50.0031 1616.18 -44.5394 1636.56Z" fill="url(#paint4_linear_322_117)"/>
<path d="M107.979 2090.28C97.6594 2096.24 81.2559 2110.58 79.062 2122.28C75.5177 2141.18 64.0383 2158.49 46.0586 2168.87C13.4056 2187.72 -28.3218 2176.58 -47.1422 2143.98C-65.9625 2111.39 -54.7489 2069.69 -22.0959 2050.84C-4.36982 2040.61 16.0305 2039.21 33.9886 2045.29C45.3569 2049.14 66.1484 2041.87 76.5524 2035.86C86.4844 2030.13 105.74 2013.48 108.04 2002.25C111.822 1983.79 123.2 1966.96 140.822 1956.79C173.475 1937.94 215.203 1949.08 234.023 1981.68C252.843 2014.27 241.63 2055.97 208.977 2074.82C191.107 2085.14 170.52 2086.47 152.457 2080.22C141.706 2076.5 117.84 2084.59 107.979 2090.28Z" fill="url(#paint5_linear_322_117)"/>
<path d="M65.105 1954.6C73.1559 1968.54 68.359 1986.38 54.3908 1994.45C40.4225 2002.51 22.5724 1997.74 14.5215 1983.8C6.47058 1969.86 11.2675 1952.02 25.2358 1943.96C39.204 1935.89 57.054 1940.66 65.105 1954.6Z" fill="url(#paint6_linear_322_117)"/>
<path d="M-69.2587 1122.49C-92.1066 1116.37 -135.267 1113.49 -154.778 1126.86C-186.299 1148.47 -226.717 1156.68 -266.524 1146.01C-338.817 1126.65 -381.72 1052.35 -362.349 980.064C-342.978 907.78 -268.669 864.883 -196.375 884.252C-157.129 894.766 -126.545 921.468 -109.883 955.248C-99.3357 976.633 -59.9465 995.617 -36.9122 1001.79C-14.9227 1007.68 35.4815 1011.32 54.4717 998.766C85.7089 978.117 125.311 970.435 164.326 980.888C236.62 1000.26 279.523 1074.55 260.151 1146.84C240.78 1219.12 166.471 1262.02 94.1775 1242.65C54.6143 1232.05 23.8535 1205 7.28435 1170.83C-2.57682 1150.5 -47.4261 1128.34 -69.2587 1122.49Z" fill="url(#paint7_linear_322_117)"/>
<path d="M61.159 871.419C52.8725 902.341 21.0847 920.691 -9.84098 912.405C-40.7667 904.12 -59.1194 872.337 -50.8328 841.415C-42.5463 810.494 -10.7585 792.144 20.1672 800.429C51.0929 808.714 69.4455 840.498 61.159 871.419Z" fill="url(#paint8_linear_322_117)"/>
<path d="M83.9047 737.257C62.7432 725.041 20.4457 710.632 -2.59813 718.758C-39.8272 731.888 -82.3537 729.278 -119.222 707.995C-186.18 669.342 -209.121 583.736 -170.463 516.788C-131.805 449.839 -46.187 426.901 20.7707 465.554C57.1195 486.537 80.4967 521.357 88.0894 559.518C92.896 583.675 127.123 613.149 148.457 625.464C168.824 637.221 218.145 654.327 240.451 646.878C277.142 634.625 318.712 637.546 354.848 658.406C421.805 697.059 444.747 782.665 406.089 849.613C367.431 916.562 281.812 939.5 214.855 900.847C178.212 879.695 154.751 844.48 147.355 805.956C142.953 783.029 104.126 748.93 83.9047 737.257Z" fill="url(#paint9_linear_322_117)"/>
<path d="M281.177 521.596C264.64 550.235 228.014 560.047 199.371 543.512C170.728 526.977 160.914 490.357 177.451 461.718C193.988 433.079 230.614 423.267 259.257 439.801C287.9 456.336 297.714 492.957 281.177 521.596Z" fill="url(#paint10_linear_322_117)"/>
<path d="M320.251 354.084C295.998 340.084 247.52 323.569 221.108 332.883C178.439 347.931 129.699 344.94 87.4425 320.547C10.7006 276.246 -15.5931 178.13 28.7139 101.399C73.0208 24.6682 171.15 -1.62164 247.892 42.6791C289.552 66.7283 316.346 106.637 325.048 150.374C330.557 178.061 369.785 211.842 394.237 225.957C417.579 239.432 474.108 259.037 499.673 250.499C541.725 236.455 589.37 239.804 630.786 263.712C707.528 308.013 733.821 406.128 689.515 482.859C645.208 559.59 547.078 585.88 470.336 541.58C428.339 517.336 401.45 476.975 392.973 432.822C387.928 406.545 343.427 367.463 320.251 354.084Z" fill="url(#paint11_linear_322_117)"/>
<path d="M546.35 106.91C527.396 139.734 485.419 150.98 452.59 132.029C419.762 113.078 408.514 71.1065 427.468 38.2827C446.421 5.4588 488.399 -5.7874 521.227 13.1635C554.056 32.1143 565.303 74.086 546.35 106.91Z" fill="url(#paint12_linear_322_117)"/>
<path d="M473.94 -133.562C447.037 -133.562 398.773 -124.287 381.275 -104.429C353.006 -72.3465 311.021 -52.015 264.149 -52.015C179.025 -52.015 110.017 -119.074 110.017 -201.795C110.017 -284.516 179.025 -351.574 264.149 -351.574C310.36 -351.574 351.821 -331.812 380.071 -300.51C397.955 -280.695 446.817 -271.692 473.94 -271.692C499.832 -271.692 556.278 -282.224 573.445 -301.06C601.683 -332.043 642.928 -351.574 688.868 -351.574C773.993 -351.574 843 -284.516 843 -201.795C843 -119.074 773.993 -52.015 688.868 -52.015C642.283 -52.015 600.525 -72.0983 572.263 -103.841C555.442 -122.733 499.647 -133.562 473.94 -133.562Z" fill="url(#paint13_linear_322_117)"/>
<path d="M543.299 -438.946C543.299 -403.559 513.779 -374.873 477.365 -374.873C440.95 -374.873 411.431 -403.559 411.431 -438.946C411.431 -474.332 440.95 -503.018 477.365 -503.018C513.779 -503.018 543.299 -474.332 543.299 -438.946Z" fill="url(#paint14_linear_322_117)"/>
<path d="M422.234 -600.074C395.183 -592.827 349.224 -570.23 337.136 -544.971C317.606 -504.163 281.026 -471.818 233.895 -459.191C148.301 -436.26 60.3206 -487.048 37.3856 -572.63C14.4507 -658.213 65.2462 -746.181 150.841 -769.113C197.307 -781.561 244.476 -772.285 281.56 -747.511C305.036 -731.827 356.665 -735.676 383.937 -742.982C409.972 -749.957 463.809 -776.06 475.848 -800.172C495.652 -839.834 531.71 -871.152 577.903 -883.528C663.498 -906.459 751.478 -855.671 774.413 -770.089C797.348 -684.506 746.552 -596.538 660.958 -573.606C614.116 -561.057 566.559 -570.586 529.34 -595.813C507.189 -610.827 448.084 -607 422.234 -600.074Z" fill="url(#paint15_linear_322_117)"/>
<path d="M407.307 -934.707C417.118 -898.096 395.389 -860.465 358.773 -850.656C322.158 -840.846 284.522 -862.572 274.711 -899.182C264.9 -935.793 286.629 -973.424 323.244 -983.233C359.86 -993.043 397.496 -971.317 407.307 -934.707Z" fill="url(#paint16_linear_322_117)"/>
<path d="M234.506 -1067.33C212.025 -1054.36 176.3 -1023.1 171.537 -997.587C163.843 -956.367 138.854 -918.634 99.6869 -896.024C28.5558 -854.963 -62.3991 -879.33 -103.467 -950.452C-144.534 -1021.57 -120.163 -1112.51 -49.0318 -1153.58C-10.4174 -1175.87 34.039 -1178.88 73.1851 -1165.59C97.9663 -1157.18 143.266 -1173.01 165.93 -1186.09C187.566 -1198.58 229.503 -1234.87 234.497 -1259.34C242.711 -1299.6 267.48 -1336.29 305.868 -1358.45C376.999 -1399.51 467.954 -1375.14 509.021 -1304.02C550.089 -1232.9 525.718 -1141.96 454.586 -1100.9C415.66 -1078.43 370.796 -1075.55 331.42 -1089.21C307.986 -1097.34 255.987 -1079.73 234.506 -1067.33Z" fill="url(#paint17_linear_322_117)"/>
<path d="M140.853 -1363.35C158.42 -1332.93 147.995 -1294.02 117.566 -1276.46C87.1382 -1258.89 48.2297 -1269.32 30.6619 -1299.74C13.0941 -1330.16 23.5196 -1369.07 53.9479 -1386.63C84.3762 -1404.2 123.285 -1393.77 140.853 -1363.35Z" fill="url(#paint18_linear_322_117)"/>
<path d="M48.5518 -1499.63C25.37 -1493.42 -14.0143 -1474.06 -24.3736 -1452.41C-41.1097 -1417.44 -72.4569 -1389.72 -112.846 -1378.9C-186.196 -1359.25 -261.591 -1402.77 -281.245 -1476.11C-300.899 -1549.45 -257.37 -1624.84 -184.02 -1644.49C-144.2 -1655.16 -103.779 -1647.21 -71.9991 -1625.98C-51.8811 -1612.54 -7.63815 -1615.84 15.7327 -1622.1C38.0436 -1628.08 84.1794 -1650.44 94.4965 -1671.11C111.467 -1705.1 142.367 -1731.93 181.953 -1742.54C255.303 -1762.19 330.698 -1718.67 350.352 -1645.33C370.006 -1571.99 326.477 -1496.6 253.127 -1476.95C212.985 -1466.2 172.232 -1474.36 140.336 -1495.98C121.354 -1508.85 70.7035 -1505.57 48.5518 -1499.63Z" fill="url(#paint19_linear_322_117)"/>
<path d="M35.7595 -1786.4C44.1671 -1755.02 25.5462 -1722.78 -5.83139 -1714.37C-37.209 -1705.96 -69.4613 -1724.58 -77.8689 -1755.95C-86.2766 -1787.33 -67.6557 -1819.58 -36.278 -1827.98C-4.90039 -1836.39 27.3519 -1817.77 35.7595 -1786.4Z" fill="url(#paint20_linear_322_117)"/>
<path d="M166.401 2174.81C166.401 2190.38 153.779 2203 138.209 2203C122.639 2203 110.017 2190.38 110.017 2174.81C110.017 2159.24 122.639 2146.62 138.209 2146.62C153.779 2146.62 166.401 2159.24 166.401 2174.81Z" fill="url(#paint21_linear_322_117)"/>
</g>
<defs>
<linearGradient id="paint0_linear_322_117" x1="238" y1="0" x2="238" y2="583" gradientUnits="userSpaceOnUse">
<stop stop-color="#599AA6"/>
<stop offset="1" stop-color="#78CFE2"/>
</linearGradient>
<linearGradient id="paint1_linear_322_117" x1="238" y1="-1830" x2="238" y2="2203" gradientUnits="userSpaceOnUse">
<stop stop-color="#589BA6"/>
<stop offset="1" stop-color="#78CFE2"/>
</linearGradient>
<linearGradient id="paint2_linear_322_117" x1="238" y1="-1830" x2="238" y2="2203" gradientUnits="userSpaceOnUse">
<stop stop-color="#589BA6"/>
<stop offset="1" stop-color="#78CFE2"/>
</linearGradient>
<linearGradient id="paint3_linear_322_117" x1="238" y1="-1830" x2="238" y2="2203" gradientUnits="userSpaceOnUse">
<stop stop-color="#589BA6"/>
<stop offset="1" stop-color="#78CFE2"/>
</linearGradient>
<linearGradient id="paint4_linear_322_117" x1="238" y1="-1830" x2="238" y2="2203" gradientUnits="userSpaceOnUse">
<stop stop-color="#589BA6"/>
<stop offset="1" stop-color="#78CFE2"/>
</linearGradient>
<linearGradient id="paint5_linear_322_117" x1="238" y1="-1830" x2="238" y2="2203" gradientUnits="userSpaceOnUse">
<stop stop-color="#589BA6"/>
<stop offset="1" stop-color="#78CFE2"/>
</linearGradient>
<linearGradient id="paint6_linear_322_117" x1="238" y1="-1830" x2="238" y2="2203" gradientUnits="userSpaceOnUse">
<stop stop-color="#589BA6"/>
<stop offset="1" stop-color="#78CFE2"/>
</linearGradient>
<linearGradient id="paint7_linear_322_117" x1="238" y1="-1830" x2="238" y2="2203" gradientUnits="userSpaceOnUse">
<stop stop-color="#589BA6"/>
<stop offset="1" stop-color="#78CFE2"/>
</linearGradient>
<linearGradient id="paint8_linear_322_117" x1="238" y1="-1830" x2="238" y2="2203" gradientUnits="userSpaceOnUse">
<stop stop-color="#589BA6"/>
<stop offset="1" stop-color="#78CFE2"/>
</linearGradient>
<linearGradient id="paint9_linear_322_117" x1="238" y1="-1830" x2="238" y2="2203" gradientUnits="userSpaceOnUse">
<stop stop-color="#589BA6"/>
<stop offset="1" stop-color="#78CFE2"/>
</linearGradient>
<linearGradient id="paint10_linear_322_117" x1="238" y1="-1830" x2="238" y2="2203" gradientUnits="userSpaceOnUse">
<stop stop-color="#589BA6"/>
<stop offset="1" stop-color="#78CFE2"/>
</linearGradient>
<linearGradient id="paint11_linear_322_117" x1="238" y1="-1830" x2="238" y2="2203" gradientUnits="userSpaceOnUse">
<stop stop-color="#589BA6"/>
<stop offset="1" stop-color="#78CFE2"/>
</linearGradient>
<linearGradient id="paint12_linear_322_117" x1="238" y1="-1830" x2="238" y2="2203" gradientUnits="userSpaceOnUse">
<stop stop-color="#589BA6"/>
<stop offset="1" stop-color="#78CFE2"/>
</linearGradient>
<linearGradient id="paint13_linear_322_117" x1="238" y1="-1830" x2="238" y2="2203" gradientUnits="userSpaceOnUse">
<stop stop-color="#589BA6"/>
<stop offset="1" stop-color="#78CFE2"/>
</linearGradient>
<linearGradient id="paint14_linear_322_117" x1="238" y1="-1830" x2="238" y2="2203" gradientUnits="userSpaceOnUse">
<stop stop-color="#589BA6"/>
<stop offset="1" stop-color="#78CFE2"/>
</linearGradient>
<linearGradient id="paint15_linear_322_117" x1="238" y1="-1830" x2="238" y2="2203" gradientUnits="userSpaceOnUse">
<stop stop-color="#589BA6"/>
<stop offset="1" stop-color="#78CFE2"/>
</linearGradient>
<linearGradient id="paint16_linear_322_117" x1="238" y1="-1830" x2="238" y2="2203" gradientUnits="userSpaceOnUse">
<stop stop-color="#589BA6"/>
<stop offset="1" stop-color="#78CFE2"/>
</linearGradient>
<linearGradient id="paint17_linear_322_117" x1="238" y1="-1830" x2="238" y2="2203" gradientUnits="userSpaceOnUse">
<stop stop-color="#589BA6"/>
<stop offset="1" stop-color="#78CFE2"/>
</linearGradient>
<linearGradient id="paint18_linear_322_117" x1="238" y1="-1830" x2="238" y2="2203" gradientUnits="userSpaceOnUse">
<stop stop-color="#589BA6"/>
<stop offset="1" stop-color="#78CFE2"/>
</linearGradient>
<linearGradient id="paint19_linear_322_117" x1="238" y1="-1830" x2="238" y2="2203" gradientUnits="userSpaceOnUse">
<stop stop-color="#589BA6"/>
<stop offset="1" stop-color="#78CFE2"/>
</linearGradient>
<linearGradient id="paint20_linear_322_117" x1="238" y1="-1830" x2="238" y2="2203" gradientUnits="userSpaceOnUse">
<stop stop-color="#589BA6"/>
<stop offset="1" stop-color="#78CFE2"/>
</linearGradient>
<linearGradient id="paint21_linear_322_117" x1="238" y1="-1830" x2="238" y2="2203" gradientUnits="userSpaceOnUse">
<stop stop-color="#589BA6"/>
<stop offset="1" stop-color="#78CFE2"/>
</linearGradient>
<clipPath id="clip0_322_117">
<rect width="372" height="421" fill="white"/>
</clipPath>
</defs>
</svg>
