<svg width="372" height="422" viewBox="0 0 372 422" fill="none" xmlns="http://www.w3.org/2000/svg">
<g clip-path="url(#clip0_322_168)">
<rect width="476" height="583" fill="url(#paint0_linear_322_168)"/>
<path d="M-289.089 1261.72C-307.714 1261.72 -341.127 1268.67 -353.241 1283.57C-372.812 1307.63 -401.878 1322.88 -434.328 1322.88C-493.261 1322.88 -541.035 1272.58 -541.035 1210.54C-541.035 1148.5 -493.261 1098.21 -434.328 1098.21C-402.336 1098.21 -373.632 1113.03 -354.075 1136.5C-341.694 1151.37 -307.866 1158.12 -289.089 1158.12C-271.163 1158.12 -232.085 1150.22 -220.201 1136.09C-200.651 1112.85 -172.097 1098.21 -140.292 1098.21C-81.3596 1098.21 -33.5854 1148.5 -33.5854 1210.54C-33.5854 1272.58 -81.3596 1322.88 -140.292 1322.88C-172.543 1322.88 -201.453 1307.81 -221.019 1284.01C-232.664 1269.84 -271.291 1261.72 -289.089 1261.72Z" fill="url(#paint1_linear_322_168)"/>
<path d="M-241.071 1032.68C-241.071 1059.22 -261.507 1080.73 -286.717 1080.73C-311.927 1080.73 -332.364 1059.22 -332.364 1032.68C-332.364 1006.14 -311.927 984.624 -286.717 984.624C-261.507 984.624 -241.071 1006.14 -241.071 1032.68Z" fill="url(#paint2_linear_322_168)"/>
<path d="M-236.292 1562.94C-251.382 1566.98 -277.022 1579.58 -283.771 1593.65C-294.674 1616.38 -315.085 1634.4 -341.376 1641.45C-389.124 1654.24 -438.185 1625.97 -450.958 1578.31C-463.73 1530.65 -435.377 1481.65 -387.629 1468.85C-361.708 1461.91 -335.401 1467.07 -314.722 1480.85C-301.631 1489.58 -272.833 1487.43 -257.62 1483.35C-243.096 1479.46 -213.061 1464.91 -206.34 1451.48C-195.285 1429.38 -175.165 1411.93 -149.397 1405.03C-101.649 1392.24 -52.5878 1420.5 -39.8154 1468.16C-27.0431 1515.82 -55.3963 1564.83 -103.144 1577.62C-129.274 1584.62 -155.798 1579.33 -176.552 1565.29C-188.904 1556.93 -221.872 1559.07 -236.292 1562.94Z" fill="url(#paint3_linear_322_168)"/>
<path d="M-244.539 1376.56C-239.076 1396.95 -251.205 1417.92 -271.63 1423.39C-292.055 1428.86 -313.043 1416.77 -318.507 1396.38C-323.97 1375.99 -311.841 1355.03 -291.416 1349.56C-270.99 1344.08 -250.003 1356.18 -244.539 1376.56Z" fill="url(#paint4_linear_322_168)"/>
<path d="M-92.0208 1830.28C-102.341 1836.24 -118.744 1850.58 -120.938 1862.28C-124.482 1881.18 -135.962 1898.49 -153.941 1908.87C-186.594 1927.72 -228.322 1916.58 -247.142 1883.98C-265.963 1851.39 -254.749 1809.69 -222.096 1790.84C-204.37 1780.61 -183.97 1779.21 -166.011 1785.29C-154.643 1789.14 -133.852 1781.87 -123.448 1775.86C-113.516 1770.13 -94.2599 1753.48 -91.9602 1742.25C-88.1776 1723.79 -76.7998 1706.96 -59.1777 1696.79C-26.5247 1677.94 15.2027 1689.08 34.0231 1721.68C52.8434 1754.27 41.6298 1795.97 8.97682 1814.82C-8.89272 1825.14 -29.4799 1826.47 -47.5432 1820.22C-58.2935 1816.5 -82.1597 1824.59 -92.0208 1830.28Z" fill="url(#paint5_linear_322_168)"/>
<path d="M-134.895 1694.6C-126.844 1708.54 -131.641 1726.38 -145.609 1734.45C-159.577 1742.51 -177.428 1737.74 -185.478 1723.8C-193.529 1709.86 -188.732 1692.02 -174.764 1683.96C-160.796 1675.89 -142.946 1680.66 -134.895 1694.6Z" fill="url(#paint6_linear_322_168)"/>
<path d="M-269.259 862.49C-292.107 856.369 -335.267 853.492 -354.778 866.863C-386.299 888.466 -426.717 896.679 -466.524 886.014C-538.817 866.646 -581.72 792.347 -562.349 720.064C-542.978 647.78 -468.669 604.883 -396.375 624.252C-357.129 634.766 -326.545 661.468 -309.883 695.248C-299.336 716.633 -259.946 735.617 -236.912 741.788C-214.923 747.68 -164.518 751.319 -145.528 738.766C-114.291 718.117 -74.6889 710.435 -35.6737 720.888C36.6202 740.256 79.5225 814.555 60.1514 886.838C40.7804 959.122 -33.5287 1002.02 -105.823 982.65C-145.386 972.051 -176.147 945 -192.716 910.832C-202.577 890.497 -247.426 868.339 -269.259 862.49Z" fill="url(#paint7_linear_322_168)"/>
<path d="M-138.841 611.419C-147.127 642.341 -178.915 660.691 -209.841 652.405C-240.767 644.12 -259.119 612.337 -250.833 581.415C-242.546 550.494 -210.759 532.144 -179.833 540.429C-148.907 548.714 -130.554 580.498 -138.841 611.419Z" fill="url(#paint8_linear_322_168)"/>
<path d="M-116.095 477.257C-137.257 465.041 -179.554 450.632 -202.598 458.758C-239.827 471.888 -282.354 469.278 -319.222 447.995C-386.18 409.342 -409.121 323.736 -370.463 256.788C-331.805 189.839 -246.187 166.901 -179.229 205.554C-142.88 226.537 -119.503 261.357 -111.911 299.518C-107.104 323.675 -72.8769 353.149 -51.5429 365.464C-31.1765 377.221 18.1452 394.327 40.451 386.878C77.142 374.625 118.712 377.546 154.848 398.406C221.805 437.059 244.747 522.665 206.089 589.613C167.431 656.562 81.8124 679.5 14.8547 640.847C-21.7883 619.695 -45.2489 584.48 -52.6453 545.956C-57.0473 523.029 -95.8742 488.93 -116.095 477.257Z" fill="url(#paint9_linear_322_168)"/>
<path d="M81.1769 261.596C64.6399 290.235 28.0142 300.047 -0.628821 283.512C-29.2718 266.977 -39.0857 230.357 -22.5486 201.718C-6.01158 173.079 30.6141 163.267 59.2571 179.801C87.9001 196.336 97.7139 232.957 81.1769 261.596Z" fill="url(#paint10_linear_322_168)"/>
<path d="M120.251 94.0845C95.9977 80.0836 47.5195 63.5688 21.1084 72.8829C-21.5608 87.9307 -70.3014 84.94 -112.558 60.5469C-189.299 16.2462 -215.593 -81.8696 -171.286 -158.601C-126.979 -235.332 -28.8498 -261.622 47.892 -217.321C89.5523 -193.272 116.346 -153.363 125.048 -109.626C130.557 -81.9386 169.785 -48.1584 194.237 -34.0433C217.579 -20.5684 274.108 -0.962929 299.673 -9.50075C341.725 -23.5447 389.37 -20.1961 430.786 3.71189C507.528 48.0126 533.821 146.128 489.515 222.859C445.208 299.59 347.078 325.88 270.336 281.58C228.339 257.336 201.45 216.975 192.973 172.822C187.928 146.545 143.427 107.463 120.251 94.0845Z" fill="url(#paint11_linear_322_168)"/>
<path d="M346.35 -153.09C327.396 -120.266 285.419 -109.02 252.59 -127.971C219.762 -146.922 208.514 -188.893 227.468 -221.717C246.421 -254.541 288.399 -265.787 321.227 -246.837C354.056 -227.886 365.303 -185.914 346.35 -153.09Z" fill="url(#paint12_linear_322_168)"/>
<path d="M273.94 -393.562C247.037 -393.562 198.773 -384.287 181.275 -364.429C153.006 -332.347 111.021 -312.015 64.1492 -312.015C-20.9755 -312.015 -89.9827 -379.074 -89.9827 -461.795C-89.9827 -544.516 -20.9755 -611.574 64.1492 -611.574C110.36 -611.574 151.821 -591.812 180.071 -560.51C197.955 -540.695 246.817 -531.692 273.94 -531.692C299.832 -531.692 356.278 -542.224 373.445 -561.06C401.683 -592.043 442.928 -611.574 488.868 -611.574C573.993 -611.574 643 -544.516 643 -461.795C643 -379.074 573.993 -312.015 488.868 -312.015C442.283 -312.015 400.525 -332.098 372.263 -363.841C355.442 -382.733 299.647 -393.562 273.94 -393.562Z" fill="url(#paint13_linear_322_168)"/>
<path d="M343.299 -698.946C343.299 -663.559 313.779 -634.873 277.365 -634.873C240.95 -634.873 211.431 -663.559 211.431 -698.946C211.431 -734.332 240.95 -763.018 277.365 -763.018C313.779 -763.018 343.299 -734.332 343.299 -698.946Z" fill="url(#paint14_linear_322_168)"/>
<path d="M222.234 -860.074C195.183 -852.827 149.224 -830.23 137.136 -804.971C117.606 -764.163 81.026 -731.818 33.8954 -719.191C-51.699 -696.26 -139.679 -747.048 -162.614 -832.63C-185.549 -918.213 -134.754 -1006.18 -49.1594 -1029.11C-2.6934 -1041.56 44.4757 -1032.28 81.5602 -1007.51C105.036 -991.827 156.665 -995.676 183.937 -1002.98C209.972 -1009.96 263.809 -1036.06 275.848 -1060.17C295.652 -1099.83 331.71 -1131.15 377.903 -1143.53C463.498 -1166.46 551.478 -1115.67 574.413 -1030.09C597.348 -944.506 546.552 -856.538 460.958 -833.606C414.116 -821.057 366.559 -830.586 329.34 -855.813C307.189 -870.827 248.084 -867 222.234 -860.074Z" fill="url(#paint15_linear_322_168)"/>
<path d="M207.307 -1194.71C217.118 -1158.1 195.389 -1120.47 158.773 -1110.66C122.158 -1100.85 84.5217 -1122.57 74.7106 -1159.18C64.8995 -1195.79 86.6287 -1233.42 123.244 -1243.23C159.86 -1253.04 197.496 -1231.32 207.307 -1194.71Z" fill="url(#paint16_linear_322_168)"/>
<path d="M34.5056 -1327.33C12.0251 -1314.36 -23.7002 -1283.1 -28.4627 -1257.59C-36.1568 -1216.37 -61.1464 -1178.63 -100.313 -1156.02C-171.444 -1114.96 -262.399 -1139.33 -303.467 -1210.45C-344.534 -1281.57 -320.163 -1372.51 -249.032 -1413.58C-210.417 -1435.87 -165.961 -1438.88 -126.815 -1425.59C-102.034 -1417.18 -56.734 -1433.01 -34.0703 -1446.09C-12.4344 -1458.58 29.5033 -1494.87 34.497 -1519.34C42.7111 -1559.6 67.4801 -1596.29 105.868 -1618.45C176.999 -1659.51 267.954 -1635.14 309.021 -1564.02C350.089 -1492.9 325.718 -1401.96 254.586 -1360.9C215.66 -1338.43 170.796 -1335.55 131.42 -1349.21C107.986 -1357.34 55.987 -1339.73 34.5056 -1327.33Z" fill="url(#paint17_linear_322_168)"/>
<path d="M-59.1475 -1623.35C-41.5797 -1592.93 -52.0052 -1554.02 -82.4335 -1536.46C-112.862 -1518.89 -151.77 -1529.32 -169.338 -1559.74C-186.906 -1590.16 -176.48 -1629.07 -146.052 -1646.63C-115.624 -1664.2 -76.7152 -1653.77 -59.1475 -1623.35Z" fill="url(#paint18_linear_322_168)"/>
<path d="M-151.448 -1759.63C-174.63 -1753.42 -214.014 -1734.06 -224.374 -1712.41C-241.11 -1677.44 -272.457 -1649.72 -312.846 -1638.9C-386.196 -1619.25 -461.591 -1662.77 -481.245 -1736.11C-500.899 -1809.45 -457.37 -1884.84 -384.02 -1904.49C-344.2 -1915.16 -303.779 -1907.21 -271.999 -1885.98C-251.881 -1872.54 -207.638 -1875.84 -184.267 -1882.1C-161.956 -1888.08 -115.821 -1910.44 -105.503 -1931.11C-88.5328 -1965.1 -57.6328 -1991.93 -18.0474 -2002.54C55.3029 -2022.19 130.698 -1978.67 150.352 -1905.33C170.006 -1831.99 126.477 -1756.6 53.1266 -1736.95C12.9853 -1726.2 -27.7684 -1734.36 -59.6636 -1755.98C-78.6461 -1768.85 -129.297 -1765.57 -151.448 -1759.63Z" fill="url(#paint19_linear_322_168)"/>
<path d="M-164.24 -2046.4C-155.833 -2015.02 -174.454 -1982.78 -205.831 -1974.37C-237.209 -1965.96 -269.461 -1984.58 -277.869 -2015.95C-286.277 -2047.33 -267.656 -2079.58 -236.278 -2087.98C-204.9 -2096.39 -172.648 -2077.77 -164.24 -2046.4Z" fill="url(#paint20_linear_322_168)"/>
<path d="M-33.5994 1914.81C-33.5994 1930.38 -46.2212 1943 -61.791 1943C-77.3608 1943 -89.9827 1930.38 -89.9827 1914.81C-89.9827 1899.24 -77.3608 1886.62 -61.791 1886.62C-46.2212 1886.62 -33.5994 1899.24 -33.5994 1914.81Z" fill="url(#paint21_linear_322_168)"/>
</g>
<defs>
<linearGradient id="paint0_linear_322_168" x1="238" y1="0" x2="238" y2="583" gradientUnits="userSpaceOnUse">
<stop stop-color="#599AA6"/>
<stop offset="1" stop-color="#78CFE2"/>
</linearGradient>
<linearGradient id="paint1_linear_322_168" x1="38" y1="-2090" x2="38" y2="1943" gradientUnits="userSpaceOnUse">
<stop stop-color="#589BA6"/>
<stop offset="1" stop-color="#78CFE2"/>
</linearGradient>
<linearGradient id="paint2_linear_322_168" x1="38" y1="-2090" x2="38" y2="1943" gradientUnits="userSpaceOnUse">
<stop stop-color="#589BA6"/>
<stop offset="1" stop-color="#78CFE2"/>
</linearGradient>
<linearGradient id="paint3_linear_322_168" x1="38" y1="-2090" x2="38" y2="1943" gradientUnits="userSpaceOnUse">
<stop stop-color="#589BA6"/>
<stop offset="1" stop-color="#78CFE2"/>
</linearGradient>
<linearGradient id="paint4_linear_322_168" x1="38" y1="-2090" x2="38" y2="1943" gradientUnits="userSpaceOnUse">
<stop stop-color="#589BA6"/>
<stop offset="1" stop-color="#78CFE2"/>
</linearGradient>
<linearGradient id="paint5_linear_322_168" x1="38" y1="-2090" x2="38" y2="1943" gradientUnits="userSpaceOnUse">
<stop stop-color="#589BA6"/>
<stop offset="1" stop-color="#78CFE2"/>
</linearGradient>
<linearGradient id="paint6_linear_322_168" x1="38" y1="-2090" x2="38" y2="1943" gradientUnits="userSpaceOnUse">
<stop stop-color="#589BA6"/>
<stop offset="1" stop-color="#78CFE2"/>
</linearGradient>
<linearGradient id="paint7_linear_322_168" x1="38" y1="-2090" x2="38" y2="1943" gradientUnits="userSpaceOnUse">
<stop stop-color="#589BA6"/>
<stop offset="1" stop-color="#78CFE2"/>
</linearGradient>
<linearGradient id="paint8_linear_322_168" x1="38" y1="-2090" x2="38" y2="1943" gradientUnits="userSpaceOnUse">
<stop stop-color="#589BA6"/>
<stop offset="1" stop-color="#78CFE2"/>
</linearGradient>
<linearGradient id="paint9_linear_322_168" x1="38" y1="-2090" x2="38" y2="1943" gradientUnits="userSpaceOnUse">
<stop stop-color="#589BA6"/>
<stop offset="1" stop-color="#78CFE2"/>
</linearGradient>
<linearGradient id="paint10_linear_322_168" x1="38" y1="-2090" x2="38" y2="1943" gradientUnits="userSpaceOnUse">
<stop stop-color="#589BA6"/>
<stop offset="1" stop-color="#78CFE2"/>
</linearGradient>
<linearGradient id="paint11_linear_322_168" x1="38" y1="-2090" x2="38" y2="1943" gradientUnits="userSpaceOnUse">
<stop stop-color="#589BA6"/>
<stop offset="1" stop-color="#78CFE2"/>
</linearGradient>
<linearGradient id="paint12_linear_322_168" x1="38" y1="-2090" x2="38" y2="1943" gradientUnits="userSpaceOnUse">
<stop stop-color="#589BA6"/>
<stop offset="1" stop-color="#78CFE2"/>
</linearGradient>
<linearGradient id="paint13_linear_322_168" x1="38" y1="-2090" x2="38" y2="1943" gradientUnits="userSpaceOnUse">
<stop stop-color="#589BA6"/>
<stop offset="1" stop-color="#78CFE2"/>
</linearGradient>
<linearGradient id="paint14_linear_322_168" x1="38" y1="-2090" x2="38" y2="1943" gradientUnits="userSpaceOnUse">
<stop stop-color="#589BA6"/>
<stop offset="1" stop-color="#78CFE2"/>
</linearGradient>
<linearGradient id="paint15_linear_322_168" x1="38" y1="-2090" x2="38" y2="1943" gradientUnits="userSpaceOnUse">
<stop stop-color="#589BA6"/>
<stop offset="1" stop-color="#78CFE2"/>
</linearGradient>
<linearGradient id="paint16_linear_322_168" x1="38" y1="-2090" x2="38" y2="1943" gradientUnits="userSpaceOnUse">
<stop stop-color="#589BA6"/>
<stop offset="1" stop-color="#78CFE2"/>
</linearGradient>
<linearGradient id="paint17_linear_322_168" x1="38" y1="-2090" x2="38" y2="1943" gradientUnits="userSpaceOnUse">
<stop stop-color="#589BA6"/>
<stop offset="1" stop-color="#78CFE2"/>
</linearGradient>
<linearGradient id="paint18_linear_322_168" x1="38" y1="-2090" x2="38" y2="1943" gradientUnits="userSpaceOnUse">
<stop stop-color="#589BA6"/>
<stop offset="1" stop-color="#78CFE2"/>
</linearGradient>
<linearGradient id="paint19_linear_322_168" x1="38" y1="-2090" x2="38" y2="1943" gradientUnits="userSpaceOnUse">
<stop stop-color="#589BA6"/>
<stop offset="1" stop-color="#78CFE2"/>
</linearGradient>
<linearGradient id="paint20_linear_322_168" x1="38" y1="-2090" x2="38" y2="1943" gradientUnits="userSpaceOnUse">
<stop stop-color="#589BA6"/>
<stop offset="1" stop-color="#78CFE2"/>
</linearGradient>
<linearGradient id="paint21_linear_322_168" x1="38" y1="-2090" x2="38" y2="1943" gradientUnits="userSpaceOnUse">
<stop stop-color="#589BA6"/>
<stop offset="1" stop-color="#78CFE2"/>
</linearGradient>
<clipPath id="clip0_322_168">
<rect width="372" height="422" fill="white"/>
</clipPath>
</defs>
</svg>
