<svg width="372" height="422" viewBox="0 0 372 422" fill="none" xmlns="http://www.w3.org/2000/svg">
<g clip-path="url(#clip0_322_155)">
<rect width="476" height="583" fill="url(#paint0_linear_322_155)"/>
<path d="M-129.089 1059.72C-147.714 1059.72 -181.127 1066.67 -193.241 1081.57C-212.812 1105.63 -241.878 1120.88 -274.328 1120.88C-333.261 1120.88 -381.035 1070.58 -381.035 1008.54C-381.035 946.501 -333.261 896.207 -274.328 896.207C-242.336 896.207 -213.632 911.028 -194.075 934.505C-181.694 949.366 -147.866 956.118 -129.089 956.118C-111.163 956.118 -72.0853 948.219 -60.2005 934.092C-40.6511 910.855 -12.0965 896.207 19.7079 896.207C78.6404 896.207 126.415 946.501 126.415 1008.54C126.415 1070.58 78.6404 1120.88 19.7079 1120.88C-12.5432 1120.88 -41.4525 1105.81 -61.0189 1082.01C-72.6638 1067.84 -111.291 1059.72 -129.089 1059.72Z" fill="url(#paint1_linear_322_155)"/>
<path d="M-81.0706 830.678C-81.0706 857.218 -101.507 878.732 -126.717 878.732C-151.927 878.732 -172.364 857.218 -172.364 830.678C-172.364 804.138 -151.927 782.624 -126.717 782.624C-101.507 782.624 -81.0706 804.138 -81.0706 830.678Z" fill="url(#paint2_linear_322_155)"/>
<path d="M-76.292 1360.94C-91.3824 1364.98 -117.022 1377.58 -123.771 1391.65C-134.674 1414.38 -155.085 1432.4 -181.376 1439.45C-229.124 1452.24 -278.185 1423.97 -290.958 1376.31C-303.73 1328.65 -275.377 1279.65 -227.629 1266.85C-201.708 1259.91 -175.401 1265.07 -154.722 1278.85C-141.631 1287.58 -112.833 1285.43 -97.6197 1281.35C-83.0963 1277.46 -53.0612 1262.91 -46.3403 1249.48C-35.285 1227.38 -15.1653 1209.93 10.603 1203.03C58.3509 1190.24 107.412 1218.5 120.185 1266.16C132.957 1313.82 104.604 1362.83 56.8559 1375.62C30.7256 1382.62 4.20198 1377.33 -16.5521 1363.29C-28.904 1354.93 -61.8723 1357.07 -76.292 1360.94Z" fill="url(#paint3_linear_322_155)"/>
<path d="M-84.5394 1174.56C-79.0757 1194.95 -91.2046 1215.92 -111.63 1221.39C-132.055 1226.86 -153.043 1214.77 -158.507 1194.38C-163.97 1173.99 -151.841 1153.03 -131.416 1147.56C-110.99 1142.08 -90.0031 1154.18 -84.5394 1174.56Z" fill="url(#paint4_linear_322_155)"/>
<path d="M67.9792 1628.28C57.6594 1634.24 41.2559 1648.58 39.062 1660.28C35.5177 1679.18 24.0383 1696.49 6.05864 1706.87C-26.5944 1725.72 -68.3218 1714.58 -87.1422 1681.98C-105.963 1649.39 -94.7489 1607.69 -62.0959 1588.84C-44.3698 1578.61 -23.9695 1577.21 -6.0114 1583.29C5.35691 1587.14 26.1484 1579.87 36.5524 1573.86C46.4844 1568.13 65.7401 1551.48 68.0398 1540.25C71.8224 1521.79 83.2002 1504.96 100.822 1494.79C133.475 1475.94 175.203 1487.08 194.023 1519.68C212.843 1552.27 201.63 1593.97 168.977 1612.82C151.107 1623.14 130.52 1624.47 112.457 1618.22C101.706 1614.5 77.8403 1622.59 67.9792 1628.28Z" fill="url(#paint5_linear_322_155)"/>
<path d="M25.105 1492.6C33.1559 1506.54 28.359 1524.38 14.3908 1532.45C0.42252 1540.51 -17.4276 1535.74 -25.4785 1521.8C-33.5294 1507.86 -28.7325 1490.02 -14.7642 1481.96C-0.79601 1473.89 17.054 1478.66 25.105 1492.6Z" fill="url(#paint6_linear_322_155)"/>
<path d="M-109.259 660.49C-132.107 654.369 -175.267 651.492 -194.778 664.863C-226.299 686.466 -266.717 694.679 -306.524 684.014C-378.817 664.646 -421.72 590.347 -402.349 518.064C-382.978 445.78 -308.669 402.883 -236.375 422.252C-197.129 432.766 -166.545 459.468 -149.883 493.248C-139.336 514.633 -99.9465 533.617 -76.9122 539.788C-54.9227 545.68 -4.51847 549.319 14.4717 536.766C45.7089 516.117 85.3111 508.435 124.326 518.888C196.62 538.256 239.523 612.555 220.151 684.838C200.78 757.122 126.471 800.019 54.1775 780.65C14.6143 770.051 -16.1465 743 -32.7157 708.832C-42.5768 688.497 -87.4261 666.339 -109.259 660.49Z" fill="url(#paint7_linear_322_155)"/>
<path d="M21.159 409.419C12.8725 440.341 -18.9153 458.691 -49.841 450.405C-80.7667 442.12 -99.1194 410.337 -90.8328 379.415C-82.5463 348.494 -50.7585 330.144 -19.8328 338.429C11.0929 346.714 29.4455 378.498 21.159 409.419Z" fill="url(#paint8_linear_322_155)"/>
<path d="M43.9047 275.257C22.7432 263.041 -19.5543 248.632 -42.5981 256.758C-79.8272 269.888 -122.354 267.278 -159.222 245.995C-226.18 207.342 -249.121 121.736 -210.463 54.7876C-171.805 -12.1607 -86.187 -35.099 -19.2293 3.55365C17.1195 24.5367 40.4967 59.357 48.0894 97.5179C52.896 121.675 87.1231 151.149 108.457 163.464C128.824 175.221 178.145 192.327 200.451 184.878C237.142 172.625 278.712 175.546 314.848 196.406C381.805 235.059 404.747 320.665 366.089 387.613C327.431 454.562 241.812 477.5 174.855 438.847C138.212 417.695 114.751 382.48 107.355 343.956C102.953 321.029 64.1258 286.93 43.9047 275.257Z" fill="url(#paint9_linear_322_155)"/>
<path d="M241.177 59.5956C224.64 88.2345 188.014 98.0469 159.371 81.5121C130.728 64.9774 120.914 28.3568 137.451 -0.282184C153.988 -28.9212 190.614 -38.7335 219.257 -22.1988C247.9 -5.66402 257.714 30.9566 241.177 59.5956Z" fill="url(#paint10_linear_322_155)"/>
<path d="M280.251 -107.916C255.998 -121.916 207.52 -138.431 181.108 -129.117C138.439 -114.069 89.6986 -117.06 47.4425 -141.453C-29.2994 -185.754 -55.5931 -283.87 -11.2861 -360.601C33.0208 -437.332 131.15 -463.622 207.892 -419.321C249.552 -395.272 276.346 -355.363 285.048 -311.626C290.557 -283.939 329.785 -250.158 354.237 -236.043C377.579 -222.568 434.108 -202.963 459.673 -211.501C501.725 -225.545 549.37 -222.196 590.786 -198.288C667.528 -153.987 693.821 -55.8718 649.515 20.8592C605.208 97.5903 507.078 123.88 430.336 79.5797C388.339 55.3359 361.45 14.9752 352.973 -29.1775C347.928 -55.4551 303.427 -94.5368 280.251 -107.916Z" fill="url(#paint11_linear_322_155)"/>
<path d="M506.35 -355.09C487.396 -322.266 445.419 -311.02 412.59 -329.971C379.762 -348.922 368.514 -390.893 387.468 -423.717C406.421 -456.541 448.399 -467.787 481.227 -448.837C514.056 -429.886 525.303 -387.914 506.35 -355.09Z" fill="url(#paint12_linear_322_155)"/>
<path d="M433.94 -595.562C407.037 -595.562 358.773 -586.287 341.275 -566.429C313.006 -534.347 271.021 -514.015 224.149 -514.015C139.025 -514.015 70.0173 -581.074 70.0173 -663.795C70.0173 -746.516 139.025 -813.574 224.149 -813.574C270.36 -813.574 311.821 -793.812 340.071 -762.51C357.955 -742.695 406.817 -733.692 433.94 -733.692C459.832 -733.692 516.278 -744.224 533.445 -763.06C561.683 -794.043 602.928 -813.574 648.868 -813.574C733.993 -813.574 803 -746.516 803 -663.795C803 -581.074 733.993 -514.015 648.868 -514.015C602.283 -514.015 560.525 -534.098 532.263 -565.841C515.442 -584.733 459.647 -595.562 433.94 -595.562Z" fill="url(#paint13_linear_322_155)"/>
<path d="M503.299 -900.946C503.299 -865.559 473.779 -836.873 437.365 -836.873C400.95 -836.873 371.431 -865.559 371.431 -900.946C371.431 -936.332 400.95 -965.018 437.365 -965.018C473.779 -965.018 503.299 -936.332 503.299 -900.946Z" fill="url(#paint14_linear_322_155)"/>
<path d="M382.234 -1062.07C355.183 -1054.83 309.224 -1032.23 297.136 -1006.97C277.606 -966.163 241.026 -933.818 193.895 -921.191C108.301 -898.26 20.3206 -949.048 -2.61437 -1034.63C-25.5493 -1120.21 25.2462 -1208.18 110.841 -1231.11C157.307 -1243.56 204.476 -1234.28 241.56 -1209.51C265.036 -1193.83 316.665 -1197.68 343.937 -1204.98C369.972 -1211.96 423.809 -1238.06 435.848 -1262.17C455.652 -1301.83 491.71 -1333.15 537.903 -1345.53C623.498 -1368.46 711.478 -1317.67 734.413 -1232.09C757.348 -1146.51 706.552 -1058.54 620.958 -1035.61C574.116 -1023.06 526.559 -1032.59 489.34 -1057.81C467.189 -1072.83 408.084 -1069 382.234 -1062.07Z" fill="url(#paint15_linear_322_155)"/>
<path d="M367.307 -1396.71C377.118 -1360.1 355.389 -1322.47 318.773 -1312.66C282.158 -1302.85 244.522 -1324.57 234.711 -1361.18C224.9 -1397.79 246.629 -1435.42 283.244 -1445.23C319.86 -1455.04 357.496 -1433.32 367.307 -1396.71Z" fill="url(#paint16_linear_322_155)"/>
<path d="M194.506 -1529.33C172.025 -1516.36 136.3 -1485.1 131.537 -1459.59C123.843 -1418.37 98.8536 -1380.63 59.6869 -1358.02C-11.4442 -1316.96 -102.399 -1341.33 -143.467 -1412.45C-184.534 -1483.57 -160.163 -1574.51 -89.0318 -1615.58C-50.4174 -1637.87 -5.96098 -1640.88 33.1851 -1627.59C57.9663 -1619.18 103.266 -1635.01 125.93 -1648.09C147.566 -1660.58 189.503 -1696.87 194.497 -1721.34C202.711 -1761.6 227.48 -1798.29 265.868 -1820.45C336.999 -1861.51 427.954 -1837.14 469.021 -1766.02C510.089 -1694.9 485.718 -1603.96 414.586 -1562.9C375.66 -1540.43 330.796 -1537.55 291.42 -1551.21C267.986 -1559.34 215.987 -1541.73 194.506 -1529.33Z" fill="url(#paint17_linear_322_155)"/>
<path d="M100.853 -1825.35C118.42 -1794.93 107.995 -1756.02 77.5665 -1738.46C47.1382 -1720.89 8.22969 -1731.32 -9.33809 -1761.74C-26.9059 -1792.16 -16.4804 -1831.07 13.9479 -1848.63C44.3762 -1866.2 83.2848 -1855.77 100.853 -1825.35Z" fill="url(#paint18_linear_322_155)"/>
<path d="M8.55185 -1961.63C-14.63 -1955.42 -54.0143 -1936.06 -64.3736 -1914.41C-81.1097 -1879.44 -112.457 -1851.72 -152.846 -1840.9C-226.196 -1821.25 -301.591 -1864.77 -321.245 -1938.11C-340.899 -2011.45 -297.37 -2086.84 -224.02 -2106.49C-184.2 -2117.16 -143.779 -2109.21 -111.999 -2087.98C-91.8811 -2074.54 -47.6382 -2077.84 -24.2673 -2084.1C-1.95643 -2090.08 44.1794 -2112.44 54.4965 -2133.11C71.4672 -2167.1 102.367 -2193.93 141.953 -2204.54C215.303 -2224.19 290.698 -2180.67 310.352 -2107.33C330.006 -2033.99 286.477 -1958.6 213.127 -1938.95C172.985 -1928.2 132.232 -1936.36 100.336 -1957.98C81.3539 -1970.85 30.7035 -1967.57 8.55185 -1961.63Z" fill="url(#paint19_linear_322_155)"/>
<path d="M-4.24048 -2248.4C4.16714 -2217.02 -14.4538 -2184.78 -45.8314 -2176.37C-77.209 -2167.96 -109.461 -2186.58 -117.869 -2217.95C-126.277 -2249.33 -107.656 -2281.58 -76.278 -2289.98C-44.9004 -2298.39 -12.6481 -2279.77 -4.24048 -2248.4Z" fill="url(#paint20_linear_322_155)"/>
<path d="M126.401 1712.81C126.401 1728.38 113.779 1741 98.209 1741C82.6392 1741 70.0173 1728.38 70.0173 1712.81C70.0173 1697.24 82.6392 1684.62 98.209 1684.62C113.779 1684.62 126.401 1697.24 126.401 1712.81Z" fill="url(#paint21_linear_322_155)"/>
</g>
<defs>
<linearGradient id="paint0_linear_322_155" x1="238" y1="0" x2="238" y2="583" gradientUnits="userSpaceOnUse">
<stop stop-color="#599AA6"/>
<stop offset="1" stop-color="#78CFE2"/>
</linearGradient>
<linearGradient id="paint1_linear_322_155" x1="198" y1="-2292" x2="198" y2="1741" gradientUnits="userSpaceOnUse">
<stop stop-color="#589BA6"/>
<stop offset="1" stop-color="#78CFE2"/>
</linearGradient>
<linearGradient id="paint2_linear_322_155" x1="198" y1="-2292" x2="198" y2="1741" gradientUnits="userSpaceOnUse">
<stop stop-color="#589BA6"/>
<stop offset="1" stop-color="#78CFE2"/>
</linearGradient>
<linearGradient id="paint3_linear_322_155" x1="198" y1="-2292" x2="198" y2="1741" gradientUnits="userSpaceOnUse">
<stop stop-color="#589BA6"/>
<stop offset="1" stop-color="#78CFE2"/>
</linearGradient>
<linearGradient id="paint4_linear_322_155" x1="198" y1="-2292" x2="198" y2="1741" gradientUnits="userSpaceOnUse">
<stop stop-color="#589BA6"/>
<stop offset="1" stop-color="#78CFE2"/>
</linearGradient>
<linearGradient id="paint5_linear_322_155" x1="198" y1="-2292" x2="198" y2="1741" gradientUnits="userSpaceOnUse">
<stop stop-color="#589BA6"/>
<stop offset="1" stop-color="#78CFE2"/>
</linearGradient>
<linearGradient id="paint6_linear_322_155" x1="198" y1="-2292" x2="198" y2="1741" gradientUnits="userSpaceOnUse">
<stop stop-color="#589BA6"/>
<stop offset="1" stop-color="#78CFE2"/>
</linearGradient>
<linearGradient id="paint7_linear_322_155" x1="198" y1="-2292" x2="198" y2="1741" gradientUnits="userSpaceOnUse">
<stop stop-color="#589BA6"/>
<stop offset="1" stop-color="#78CFE2"/>
</linearGradient>
<linearGradient id="paint8_linear_322_155" x1="198" y1="-2292" x2="198" y2="1741" gradientUnits="userSpaceOnUse">
<stop stop-color="#589BA6"/>
<stop offset="1" stop-color="#78CFE2"/>
</linearGradient>
<linearGradient id="paint9_linear_322_155" x1="198" y1="-2292" x2="198" y2="1741" gradientUnits="userSpaceOnUse">
<stop stop-color="#589BA6"/>
<stop offset="1" stop-color="#78CFE2"/>
</linearGradient>
<linearGradient id="paint10_linear_322_155" x1="198" y1="-2292" x2="198" y2="1741" gradientUnits="userSpaceOnUse">
<stop stop-color="#589BA6"/>
<stop offset="1" stop-color="#78CFE2"/>
</linearGradient>
<linearGradient id="paint11_linear_322_155" x1="198" y1="-2292" x2="198" y2="1741" gradientUnits="userSpaceOnUse">
<stop stop-color="#589BA6"/>
<stop offset="1" stop-color="#78CFE2"/>
</linearGradient>
<linearGradient id="paint12_linear_322_155" x1="198" y1="-2292" x2="198" y2="1741" gradientUnits="userSpaceOnUse">
<stop stop-color="#589BA6"/>
<stop offset="1" stop-color="#78CFE2"/>
</linearGradient>
<linearGradient id="paint13_linear_322_155" x1="198" y1="-2292" x2="198" y2="1741" gradientUnits="userSpaceOnUse">
<stop stop-color="#589BA6"/>
<stop offset="1" stop-color="#78CFE2"/>
</linearGradient>
<linearGradient id="paint14_linear_322_155" x1="198" y1="-2292" x2="198" y2="1741" gradientUnits="userSpaceOnUse">
<stop stop-color="#589BA6"/>
<stop offset="1" stop-color="#78CFE2"/>
</linearGradient>
<linearGradient id="paint15_linear_322_155" x1="198" y1="-2292" x2="198" y2="1741" gradientUnits="userSpaceOnUse">
<stop stop-color="#589BA6"/>
<stop offset="1" stop-color="#78CFE2"/>
</linearGradient>
<linearGradient id="paint16_linear_322_155" x1="198" y1="-2292" x2="198" y2="1741" gradientUnits="userSpaceOnUse">
<stop stop-color="#589BA6"/>
<stop offset="1" stop-color="#78CFE2"/>
</linearGradient>
<linearGradient id="paint17_linear_322_155" x1="198" y1="-2292" x2="198" y2="1741" gradientUnits="userSpaceOnUse">
<stop stop-color="#589BA6"/>
<stop offset="1" stop-color="#78CFE2"/>
</linearGradient>
<linearGradient id="paint18_linear_322_155" x1="198" y1="-2292" x2="198" y2="1741" gradientUnits="userSpaceOnUse">
<stop stop-color="#589BA6"/>
<stop offset="1" stop-color="#78CFE2"/>
</linearGradient>
<linearGradient id="paint19_linear_322_155" x1="198" y1="-2292" x2="198" y2="1741" gradientUnits="userSpaceOnUse">
<stop stop-color="#589BA6"/>
<stop offset="1" stop-color="#78CFE2"/>
</linearGradient>
<linearGradient id="paint20_linear_322_155" x1="198" y1="-2292" x2="198" y2="1741" gradientUnits="userSpaceOnUse">
<stop stop-color="#589BA6"/>
<stop offset="1" stop-color="#78CFE2"/>
</linearGradient>
<linearGradient id="paint21_linear_322_155" x1="198" y1="-2292" x2="198" y2="1741" gradientUnits="userSpaceOnUse">
<stop stop-color="#589BA6"/>
<stop offset="1" stop-color="#78CFE2"/>
</linearGradient>
<clipPath id="clip0_322_155">
<rect width="372" height="422" fill="white"/>
</clipPath>
</defs>
</svg>
