<svg width="372" height="422" viewBox="0 0 372 422" fill="none" xmlns="http://www.w3.org/2000/svg">
<g clip-path="url(#clip0_322_138)">
<rect width="476" height="583" fill="url(#paint0_linear_322_138)"/>
<path d="M-89.0886 1471.72C-107.714 1471.72 -141.127 1478.67 -153.241 1493.57C-172.812 1517.63 -201.878 1532.88 -234.328 1532.88C-293.261 1532.88 -341.035 1482.58 -341.035 1420.54C-341.035 1358.5 -293.261 1308.21 -234.328 1308.21C-202.336 1308.21 -173.632 1323.03 -154.075 1346.5C-141.694 1361.37 -107.866 1368.12 -89.0886 1368.12C-71.1632 1368.12 -32.0853 1360.22 -20.2005 1346.09C-0.6511 1322.85 27.9035 1308.21 59.7079 1308.21C118.64 1308.21 166.415 1358.5 166.415 1420.54C166.415 1482.58 118.64 1532.88 59.7079 1532.88C27.4568 1532.88 -1.45252 1517.81 -21.0189 1494.01C-32.6638 1479.84 -71.2912 1471.72 -89.0886 1471.72Z" fill="url(#paint1_linear_322_138)"/>
<path d="M-41.0706 1242.68C-41.0706 1269.22 -61.5074 1290.73 -86.7174 1290.73C-111.927 1290.73 -132.364 1269.22 -132.364 1242.68C-132.364 1216.14 -111.927 1194.62 -86.7174 1194.62C-61.5074 1194.62 -41.0706 1216.14 -41.0706 1242.68Z" fill="url(#paint2_linear_322_138)"/>
<path d="M-36.292 1772.94C-51.3824 1776.98 -77.0223 1789.58 -83.7709 1803.65C-94.6738 1826.38 -115.085 1844.4 -141.376 1851.45C-189.124 1864.24 -238.185 1835.97 -250.958 1788.31C-263.73 1740.65 -235.377 1691.65 -187.629 1678.85C-161.708 1671.91 -135.401 1677.07 -114.722 1690.85C-101.631 1699.58 -72.8331 1697.43 -57.6197 1693.35C-43.0963 1689.46 -13.0612 1674.91 -6.34029 1661.48C4.71502 1639.38 24.8347 1621.93 50.603 1615.03C98.3509 1602.24 147.412 1630.5 160.185 1678.16C172.957 1725.82 144.604 1774.83 96.8559 1787.62C70.7256 1794.62 44.202 1789.33 23.4479 1775.29C11.096 1766.93 -21.8723 1769.07 -36.292 1772.94Z" fill="url(#paint3_linear_322_138)"/>
<path d="M-44.5394 1586.56C-39.0757 1606.95 -51.2046 1627.92 -71.63 1633.39C-92.0555 1638.86 -113.043 1626.77 -118.507 1606.38C-123.97 1585.99 -111.841 1565.03 -91.4159 1559.56C-70.9905 1554.08 -50.0031 1566.18 -44.5394 1586.56Z" fill="url(#paint4_linear_322_138)"/>
<path d="M107.979 2040.28C97.6594 2046.24 81.2559 2060.58 79.062 2072.28C75.5177 2091.18 64.0383 2108.49 46.0586 2118.87C13.4056 2137.72 -28.3218 2126.58 -47.1422 2093.98C-65.9625 2061.39 -54.7489 2019.69 -22.0959 2000.84C-4.36982 1990.61 16.0305 1989.21 33.9886 1995.29C45.3569 1999.14 66.1484 1991.87 76.5524 1985.86C86.4844 1980.13 105.74 1963.48 108.04 1952.25C111.822 1933.79 123.2 1916.96 140.822 1906.79C173.475 1887.94 215.203 1899.08 234.023 1931.68C252.843 1964.27 241.63 2005.97 208.977 2024.82C191.107 2035.14 170.52 2036.47 152.457 2030.22C141.706 2026.5 117.84 2034.59 107.979 2040.28Z" fill="url(#paint5_linear_322_138)"/>
<path d="M65.105 1904.6C73.1559 1918.54 68.359 1936.38 54.3908 1944.45C40.4225 1952.51 22.5724 1947.74 14.5215 1933.8C6.47058 1919.86 11.2675 1902.02 25.2358 1893.96C39.204 1885.89 57.054 1890.66 65.105 1904.6Z" fill="url(#paint6_linear_322_138)"/>
<path d="M-69.2587 1072.49C-92.1066 1066.37 -135.267 1063.49 -154.778 1076.86C-186.299 1098.47 -226.717 1106.68 -266.524 1096.01C-338.817 1076.65 -381.72 1002.35 -362.349 930.064C-342.978 857.78 -268.669 814.883 -196.375 834.252C-157.129 844.766 -126.545 871.468 -109.883 905.248C-99.3357 926.633 -59.9465 945.617 -36.9122 951.788C-14.9227 957.68 35.4815 961.319 54.4717 948.766C85.7089 928.117 125.311 920.435 164.326 930.888C236.62 950.256 279.523 1024.55 260.151 1096.84C240.78 1169.12 166.471 1212.02 94.1775 1192.65C54.6143 1182.05 23.8535 1155 7.28435 1120.83C-2.57682 1100.5 -47.4261 1078.34 -69.2587 1072.49Z" fill="url(#paint7_linear_322_138)"/>
<path d="M61.159 821.419C52.8725 852.341 21.0847 870.691 -9.84098 862.405C-40.7667 854.12 -59.1194 822.337 -50.8328 791.415C-42.5463 760.494 -10.7585 742.144 20.1672 750.429C51.0929 758.714 69.4455 790.498 61.159 821.419Z" fill="url(#paint8_linear_322_138)"/>
<path d="M83.9047 687.257C62.7432 675.041 20.4457 660.632 -2.59813 668.758C-39.8272 681.888 -82.3537 679.278 -119.222 657.995C-186.18 619.342 -209.121 533.736 -170.463 466.788C-131.805 399.839 -46.187 376.901 20.7707 415.554C57.1195 436.537 80.4967 471.357 88.0894 509.518C92.896 533.675 127.123 563.149 148.457 575.464C168.824 587.221 218.145 604.327 240.451 596.878C277.142 584.625 318.712 587.546 354.848 608.406C421.805 647.059 444.747 732.665 406.089 799.613C367.431 866.562 281.812 889.5 214.855 850.847C178.212 829.695 154.751 794.48 147.355 755.956C142.953 733.029 104.126 698.93 83.9047 687.257Z" fill="url(#paint9_linear_322_138)"/>
<path d="M281.177 471.596C264.64 500.235 228.014 510.047 199.371 493.512C170.728 476.977 160.914 440.357 177.451 411.718C193.988 383.079 230.614 373.267 259.257 389.801C287.9 406.336 297.714 442.957 281.177 471.596Z" fill="url(#paint10_linear_322_138)"/>
<path d="M320.251 304.084C295.998 290.084 247.52 273.569 221.108 282.883C178.439 297.931 129.699 294.94 87.4425 270.547C10.7006 226.246 -15.5931 128.13 28.7139 51.3993C73.0208 -25.3318 171.15 -51.6216 247.892 -7.32093C289.552 16.7283 316.346 56.6366 325.048 100.374C330.557 128.061 369.785 161.842 394.237 175.957C417.579 189.432 474.108 209.037 499.673 200.499C541.725 186.455 589.37 189.804 630.786 213.712C707.528 258.013 733.821 356.128 689.515 432.859C645.208 509.59 547.078 535.88 470.336 491.58C428.339 467.336 401.45 426.975 392.973 382.822C387.928 356.545 343.427 317.463 320.251 304.084Z" fill="url(#paint11_linear_322_138)"/>
<path d="M546.35 56.9098C527.396 89.7337 485.419 100.98 452.59 82.0292C419.762 63.0784 408.514 21.1065 427.468 -11.7173C446.421 -44.5412 488.399 -55.7874 521.227 -36.8365C554.056 -17.8857 565.303 24.086 546.35 56.9098Z" fill="url(#paint12_linear_322_138)"/>
<path d="M473.94 -183.562C447.037 -183.562 398.773 -174.287 381.275 -154.429C353.006 -122.347 311.021 -102.015 264.149 -102.015C179.025 -102.015 110.017 -169.074 110.017 -251.795C110.017 -334.516 179.025 -401.574 264.149 -401.574C310.36 -401.574 351.821 -381.812 380.071 -350.51C397.955 -330.695 446.817 -321.692 473.94 -321.692C499.832 -321.692 556.278 -332.224 573.445 -351.06C601.683 -382.043 642.928 -401.574 688.868 -401.574C773.993 -401.574 843 -334.516 843 -251.795C843 -169.074 773.993 -102.015 688.868 -102.015C642.283 -102.015 600.525 -122.098 572.263 -153.841C555.442 -172.733 499.647 -183.562 473.94 -183.562Z" fill="url(#paint13_linear_322_138)"/>
<path d="M543.299 -488.946C543.299 -453.559 513.779 -424.873 477.365 -424.873C440.95 -424.873 411.431 -453.559 411.431 -488.946C411.431 -524.332 440.95 -553.018 477.365 -553.018C513.779 -553.018 543.299 -524.332 543.299 -488.946Z" fill="url(#paint14_linear_322_138)"/>
<path d="M422.234 -650.074C395.183 -642.827 349.224 -620.23 337.136 -594.971C317.606 -554.163 281.026 -521.818 233.895 -509.191C148.301 -486.26 60.3206 -537.048 37.3856 -622.63C14.4507 -708.213 65.2462 -796.181 150.841 -819.113C197.307 -831.561 244.476 -822.285 281.56 -797.511C305.036 -781.827 356.665 -785.676 383.937 -792.982C409.972 -799.957 463.809 -826.06 475.848 -850.172C495.652 -889.834 531.71 -921.152 577.903 -933.528C663.498 -956.459 751.478 -905.671 774.413 -820.089C797.348 -734.506 746.552 -646.538 660.958 -623.606C614.116 -611.057 566.559 -620.586 529.34 -645.813C507.189 -660.827 448.084 -657 422.234 -650.074Z" fill="url(#paint15_linear_322_138)"/>
<path d="M407.307 -984.707C417.118 -948.096 395.389 -910.465 358.773 -900.656C322.158 -890.846 284.522 -912.572 274.711 -949.182C264.9 -985.793 286.629 -1023.42 323.244 -1033.23C359.86 -1043.04 397.496 -1021.32 407.307 -984.707Z" fill="url(#paint16_linear_322_138)"/>
<path d="M234.506 -1117.33C212.025 -1104.36 176.3 -1073.1 171.537 -1047.59C163.843 -1006.37 138.854 -968.634 99.6869 -946.024C28.5558 -904.963 -62.3991 -929.33 -103.467 -1000.45C-144.534 -1071.57 -120.163 -1162.51 -49.0318 -1203.58C-10.4174 -1225.87 34.039 -1228.88 73.1851 -1215.59C97.9663 -1207.18 143.266 -1223.01 165.93 -1236.09C187.566 -1248.58 229.503 -1284.87 234.497 -1309.34C242.711 -1349.6 267.48 -1386.29 305.868 -1408.45C376.999 -1449.51 467.954 -1425.14 509.021 -1354.02C550.089 -1282.9 525.718 -1191.96 454.586 -1150.9C415.66 -1128.43 370.796 -1125.55 331.42 -1139.21C307.986 -1147.34 255.987 -1129.73 234.506 -1117.33Z" fill="url(#paint17_linear_322_138)"/>
<path d="M140.853 -1413.35C158.42 -1382.93 147.995 -1344.02 117.566 -1326.46C87.1382 -1308.89 48.2297 -1319.32 30.6619 -1349.74C13.0941 -1380.16 23.5196 -1419.07 53.9479 -1436.63C84.3762 -1454.2 123.285 -1443.77 140.853 -1413.35Z" fill="url(#paint18_linear_322_138)"/>
<path d="M48.5518 -1549.63C25.37 -1543.42 -14.0143 -1524.06 -24.3736 -1502.41C-41.1097 -1467.44 -72.4569 -1439.72 -112.846 -1428.9C-186.196 -1409.25 -261.591 -1452.77 -281.245 -1526.11C-300.899 -1599.45 -257.37 -1674.84 -184.02 -1694.49C-144.2 -1705.16 -103.779 -1697.21 -71.9991 -1675.98C-51.8811 -1662.54 -7.63815 -1665.84 15.7327 -1672.1C38.0436 -1678.08 84.1794 -1700.44 94.4965 -1721.11C111.467 -1755.1 142.367 -1781.93 181.953 -1792.54C255.303 -1812.19 330.698 -1768.67 350.352 -1695.33C370.006 -1621.99 326.477 -1546.6 253.127 -1526.95C212.985 -1516.2 172.232 -1524.36 140.336 -1545.98C121.354 -1558.85 70.7035 -1555.57 48.5518 -1549.63Z" fill="url(#paint19_linear_322_138)"/>
<path d="M35.7595 -1836.4C44.1671 -1805.02 25.5462 -1772.78 -5.83139 -1764.37C-37.209 -1755.96 -69.4613 -1774.58 -77.8689 -1805.95C-86.2766 -1837.33 -67.6557 -1869.58 -36.278 -1877.98C-4.90039 -1886.39 27.3519 -1867.77 35.7595 -1836.4Z" fill="url(#paint20_linear_322_138)"/>
<path d="M166.401 2124.81C166.401 2140.38 153.779 2153 138.209 2153C122.639 2153 110.017 2140.38 110.017 2124.81C110.017 2109.24 122.639 2096.62 138.209 2096.62C153.779 2096.62 166.401 2109.24 166.401 2124.81Z" fill="url(#paint21_linear_322_138)"/>
</g>
<defs>
<linearGradient id="paint0_linear_322_138" x1="238" y1="0" x2="238" y2="583" gradientUnits="userSpaceOnUse">
<stop stop-color="#599AA6"/>
<stop offset="1" stop-color="#78CFE2"/>
</linearGradient>
<linearGradient id="paint1_linear_322_138" x1="238" y1="-1880" x2="238" y2="2153" gradientUnits="userSpaceOnUse">
<stop stop-color="#589BA6"/>
<stop offset="1" stop-color="#78CFE2"/>
</linearGradient>
<linearGradient id="paint2_linear_322_138" x1="238" y1="-1880" x2="238" y2="2153" gradientUnits="userSpaceOnUse">
<stop stop-color="#589BA6"/>
<stop offset="1" stop-color="#78CFE2"/>
</linearGradient>
<linearGradient id="paint3_linear_322_138" x1="238" y1="-1880" x2="238" y2="2153" gradientUnits="userSpaceOnUse">
<stop stop-color="#589BA6"/>
<stop offset="1" stop-color="#78CFE2"/>
</linearGradient>
<linearGradient id="paint4_linear_322_138" x1="238" y1="-1880" x2="238" y2="2153" gradientUnits="userSpaceOnUse">
<stop stop-color="#589BA6"/>
<stop offset="1" stop-color="#78CFE2"/>
</linearGradient>
<linearGradient id="paint5_linear_322_138" x1="238" y1="-1880" x2="238" y2="2153" gradientUnits="userSpaceOnUse">
<stop stop-color="#589BA6"/>
<stop offset="1" stop-color="#78CFE2"/>
</linearGradient>
<linearGradient id="paint6_linear_322_138" x1="238" y1="-1880" x2="238" y2="2153" gradientUnits="userSpaceOnUse">
<stop stop-color="#589BA6"/>
<stop offset="1" stop-color="#78CFE2"/>
</linearGradient>
<linearGradient id="paint7_linear_322_138" x1="238" y1="-1880" x2="238" y2="2153" gradientUnits="userSpaceOnUse">
<stop stop-color="#589BA6"/>
<stop offset="1" stop-color="#78CFE2"/>
</linearGradient>
<linearGradient id="paint8_linear_322_138" x1="238" y1="-1880" x2="238" y2="2153" gradientUnits="userSpaceOnUse">
<stop stop-color="#589BA6"/>
<stop offset="1" stop-color="#78CFE2"/>
</linearGradient>
<linearGradient id="paint9_linear_322_138" x1="238" y1="-1880" x2="238" y2="2153" gradientUnits="userSpaceOnUse">
<stop stop-color="#589BA6"/>
<stop offset="1" stop-color="#78CFE2"/>
</linearGradient>
<linearGradient id="paint10_linear_322_138" x1="238" y1="-1880" x2="238" y2="2153" gradientUnits="userSpaceOnUse">
<stop stop-color="#589BA6"/>
<stop offset="1" stop-color="#78CFE2"/>
</linearGradient>
<linearGradient id="paint11_linear_322_138" x1="238" y1="-1880" x2="238" y2="2153" gradientUnits="userSpaceOnUse">
<stop stop-color="#589BA6"/>
<stop offset="1" stop-color="#78CFE2"/>
</linearGradient>
<linearGradient id="paint12_linear_322_138" x1="238" y1="-1880" x2="238" y2="2153" gradientUnits="userSpaceOnUse">
<stop stop-color="#589BA6"/>
<stop offset="1" stop-color="#78CFE2"/>
</linearGradient>
<linearGradient id="paint13_linear_322_138" x1="238" y1="-1880" x2="238" y2="2153" gradientUnits="userSpaceOnUse">
<stop stop-color="#589BA6"/>
<stop offset="1" stop-color="#78CFE2"/>
</linearGradient>
<linearGradient id="paint14_linear_322_138" x1="238" y1="-1880" x2="238" y2="2153" gradientUnits="userSpaceOnUse">
<stop stop-color="#589BA6"/>
<stop offset="1" stop-color="#78CFE2"/>
</linearGradient>
<linearGradient id="paint15_linear_322_138" x1="238" y1="-1880" x2="238" y2="2153" gradientUnits="userSpaceOnUse">
<stop stop-color="#589BA6"/>
<stop offset="1" stop-color="#78CFE2"/>
</linearGradient>
<linearGradient id="paint16_linear_322_138" x1="238" y1="-1880" x2="238" y2="2153" gradientUnits="userSpaceOnUse">
<stop stop-color="#589BA6"/>
<stop offset="1" stop-color="#78CFE2"/>
</linearGradient>
<linearGradient id="paint17_linear_322_138" x1="238" y1="-1880" x2="238" y2="2153" gradientUnits="userSpaceOnUse">
<stop stop-color="#589BA6"/>
<stop offset="1" stop-color="#78CFE2"/>
</linearGradient>
<linearGradient id="paint18_linear_322_138" x1="238" y1="-1880" x2="238" y2="2153" gradientUnits="userSpaceOnUse">
<stop stop-color="#589BA6"/>
<stop offset="1" stop-color="#78CFE2"/>
</linearGradient>
<linearGradient id="paint19_linear_322_138" x1="238" y1="-1880" x2="238" y2="2153" gradientUnits="userSpaceOnUse">
<stop stop-color="#589BA6"/>
<stop offset="1" stop-color="#78CFE2"/>
</linearGradient>
<linearGradient id="paint20_linear_322_138" x1="238" y1="-1880" x2="238" y2="2153" gradientUnits="userSpaceOnUse">
<stop stop-color="#589BA6"/>
<stop offset="1" stop-color="#78CFE2"/>
</linearGradient>
<linearGradient id="paint21_linear_322_138" x1="238" y1="-1880" x2="238" y2="2153" gradientUnits="userSpaceOnUse">
<stop stop-color="#589BA6"/>
<stop offset="1" stop-color="#78CFE2"/>
</linearGradient>
<clipPath id="clip0_322_138">
<rect width="372" height="422" fill="white"/>
</clipPath>
</defs>
</svg>
