<svg width="372" height="421" viewBox="0 0 372 421" fill="none" xmlns="http://www.w3.org/2000/svg">
<g clip-path="url(#clip0_322_94)">
<rect width="476" height="583" fill="url(#paint0_linear_322_94)"/>
<path d="M-279.089 1441.72C-297.714 1441.72 -331.127 1448.67 -343.241 1463.57C-362.812 1487.63 -391.878 1502.88 -424.328 1502.88C-483.261 1502.88 -531.035 1452.58 -531.035 1390.54C-531.035 1328.5 -483.261 1278.21 -424.328 1278.21C-392.336 1278.21 -363.632 1293.03 -344.075 1316.5C-331.694 1331.37 -297.866 1338.12 -279.089 1338.12C-261.163 1338.12 -222.085 1330.22 -210.201 1316.09C-190.651 1292.85 -162.097 1278.21 -130.292 1278.21C-71.3596 1278.21 -23.5854 1328.5 -23.5854 1390.54C-23.5854 1452.58 -71.3596 1502.88 -130.292 1502.88C-162.543 1502.88 -191.453 1487.81 -211.019 1464.01C-222.664 1449.84 -261.291 1441.72 -279.089 1441.72Z" fill="url(#paint1_linear_322_94)"/>
<path d="M-231.071 1212.68C-231.071 1239.22 -251.507 1260.73 -276.717 1260.73C-301.927 1260.73 -322.364 1239.22 -322.364 1212.68C-322.364 1186.14 -301.927 1164.62 -276.717 1164.62C-251.507 1164.62 -231.071 1186.14 -231.071 1212.68Z" fill="url(#paint2_linear_322_94)"/>
<path d="M-226.292 1742.94C-241.382 1746.98 -267.022 1759.58 -273.771 1773.65C-284.674 1796.38 -305.085 1814.4 -331.376 1821.45C-379.124 1834.24 -428.185 1805.97 -440.958 1758.31C-453.73 1710.65 -425.377 1661.65 -377.629 1648.85C-351.708 1641.91 -325.401 1647.07 -304.722 1660.85C-291.631 1669.58 -262.833 1667.43 -247.62 1663.35C-233.096 1659.46 -203.061 1644.91 -196.34 1631.48C-185.285 1609.38 -165.165 1591.93 -139.397 1585.03C-91.6491 1572.24 -42.5878 1600.5 -29.8154 1648.16C-17.0431 1695.82 -45.3963 1744.83 -93.1441 1757.62C-119.274 1764.62 -145.798 1759.33 -166.552 1745.29C-178.904 1736.93 -211.872 1739.07 -226.292 1742.94Z" fill="url(#paint3_linear_322_94)"/>
<path d="M-234.539 1556.56C-229.076 1576.95 -241.205 1597.92 -261.63 1603.39C-282.055 1608.86 -303.043 1596.77 -308.507 1576.38C-313.97 1555.99 -301.841 1535.03 -281.416 1529.56C-260.99 1524.08 -240.003 1536.18 -234.539 1556.56Z" fill="url(#paint4_linear_322_94)"/>
<path d="M-82.0208 2010.28C-92.3406 2016.24 -108.744 2030.58 -110.938 2042.28C-114.482 2061.18 -125.962 2078.49 -143.941 2088.87C-176.594 2107.72 -218.322 2096.58 -237.142 2063.98C-255.963 2031.39 -244.749 1989.69 -212.096 1970.84C-194.37 1960.61 -173.97 1959.21 -156.011 1965.29C-144.643 1969.14 -123.852 1961.87 -113.448 1955.86C-103.516 1950.13 -84.2599 1933.48 -81.9602 1922.25C-78.1776 1903.79 -66.7998 1886.96 -49.1777 1876.79C-16.5247 1857.94 25.2027 1869.08 44.0231 1901.68C62.8434 1934.27 51.6298 1975.97 18.9768 1994.82C1.10728 2005.14 -19.4799 2006.47 -37.5432 2000.22C-48.2935 1996.5 -72.1597 2004.59 -82.0208 2010.28Z" fill="url(#paint5_linear_322_94)"/>
<path d="M-124.895 1874.6C-116.844 1888.54 -121.641 1906.38 -135.609 1914.45C-149.577 1922.51 -167.428 1917.74 -175.478 1903.8C-183.529 1889.86 -178.732 1872.02 -164.764 1863.96C-150.796 1855.89 -132.946 1860.66 -124.895 1874.6Z" fill="url(#paint6_linear_322_94)"/>
<path d="M-259.259 1042.49C-282.107 1036.37 -325.267 1033.49 -344.778 1046.86C-376.299 1068.47 -416.717 1076.68 -456.524 1066.01C-528.817 1046.65 -571.72 972.347 -552.349 900.064C-532.978 827.78 -458.669 784.883 -386.375 804.252C-347.129 814.766 -316.545 841.468 -299.883 875.248C-289.336 896.633 -249.946 915.617 -226.912 921.788C-204.923 927.68 -154.518 931.319 -135.528 918.766C-104.291 898.117 -64.6889 890.435 -25.6737 900.888C46.6202 920.256 89.5225 994.555 70.1514 1066.84C50.7804 1139.12 -23.5287 1182.02 -95.8225 1162.65C-135.386 1152.05 -166.147 1125 -182.716 1090.83C-192.577 1070.5 -237.426 1048.34 -259.259 1042.49Z" fill="url(#paint7_linear_322_94)"/>
<path d="M-128.841 791.419C-137.127 822.341 -168.915 840.691 -199.841 832.405C-230.767 824.12 -249.119 792.337 -240.833 761.415C-232.546 730.494 -200.759 712.144 -169.833 720.429C-138.907 728.714 -120.554 760.498 -128.841 791.419Z" fill="url(#paint8_linear_322_94)"/>
<path d="M-106.095 657.257C-127.257 645.041 -169.554 630.632 -192.598 638.758C-229.827 651.888 -272.354 649.278 -309.222 627.995C-376.18 589.342 -399.121 503.736 -360.463 436.788C-321.805 369.839 -236.187 346.901 -169.229 385.554C-132.88 406.537 -109.503 441.357 -101.911 479.518C-97.104 503.675 -62.8769 533.149 -41.5429 545.464C-21.1765 557.221 28.1452 574.327 50.451 566.878C87.142 554.625 128.712 557.546 164.848 578.406C231.805 617.059 254.747 702.665 216.089 769.613C177.431 836.562 91.8124 859.5 24.8547 820.847C-11.7883 799.695 -35.2489 764.48 -42.6453 725.956C-47.0473 703.029 -85.8742 668.93 -106.095 657.257Z" fill="url(#paint9_linear_322_94)"/>
<path d="M91.1769 441.596C74.6399 470.235 38.0142 480.047 9.37118 463.512C-19.2718 446.977 -29.0857 410.357 -12.5486 381.718C3.98842 353.079 40.6141 343.267 69.2571 359.801C97.9001 376.336 107.714 412.957 91.1769 441.596Z" fill="url(#paint10_linear_322_94)"/>
<path d="M130.251 274.084C105.998 260.084 57.5195 243.569 31.1084 252.883C-11.5608 267.931 -60.3014 264.94 -102.558 240.547C-179.299 196.246 -205.593 98.1304 -161.286 21.3993C-116.979 -55.3318 -18.8498 -81.6216 57.892 -37.3209C99.5523 -13.2717 126.346 26.6366 135.048 70.3738C140.557 98.0614 179.785 131.842 204.237 145.957C227.579 159.432 284.108 179.037 309.673 170.499C351.725 156.455 399.37 159.804 440.786 183.712C517.528 228.013 543.821 326.128 499.515 402.859C455.208 479.59 357.078 505.88 280.336 461.58C238.339 437.336 211.45 396.975 202.973 352.822C197.928 326.545 153.427 287.463 130.251 274.084Z" fill="url(#paint11_linear_322_94)"/>
<path d="M356.35 26.9098C337.396 59.7337 295.419 70.9801 262.59 52.0292C229.762 33.0784 218.514 -8.8935 237.468 -41.7173C256.421 -74.5412 298.399 -85.7874 331.227 -66.8365C364.056 -47.8857 375.303 -5.91403 356.35 26.9098Z" fill="url(#paint12_linear_322_94)"/>
<path d="M283.94 -213.562C257.037 -213.562 208.773 -204.287 191.275 -184.429C163.006 -152.347 121.021 -132.015 74.1492 -132.015C-10.9755 -132.015 -79.9827 -199.074 -79.9827 -281.795C-79.9827 -364.516 -10.9755 -431.574 74.1492 -431.574C120.36 -431.574 161.821 -411.812 190.071 -380.51C207.955 -360.695 256.817 -351.692 283.94 -351.692C309.832 -351.692 366.278 -362.224 383.445 -381.06C411.683 -412.043 452.928 -431.574 498.868 -431.574C583.993 -431.574 653 -364.516 653 -281.795C653 -199.074 583.993 -132.015 498.868 -132.015C452.283 -132.015 410.525 -152.098 382.263 -183.841C365.442 -202.733 309.647 -213.562 283.94 -213.562Z" fill="url(#paint13_linear_322_94)"/>
<path d="M353.299 -518.946C353.299 -483.559 323.779 -454.873 287.365 -454.873C250.95 -454.873 221.431 -483.559 221.431 -518.946C221.431 -554.332 250.95 -583.018 287.365 -583.018C323.779 -583.018 353.299 -554.332 353.299 -518.946Z" fill="url(#paint14_linear_322_94)"/>
<path d="M232.234 -680.074C205.183 -672.827 159.224 -650.23 147.136 -624.971C127.606 -584.163 91.026 -551.818 43.8954 -539.191C-41.699 -516.26 -129.679 -567.048 -152.614 -652.63C-175.549 -738.213 -124.754 -826.181 -39.1594 -849.113C7.3066 -861.561 54.4757 -852.285 91.5602 -827.511C115.036 -811.827 166.665 -815.676 193.937 -822.982C219.972 -829.957 273.809 -856.06 285.848 -880.172C305.652 -919.834 341.71 -951.152 387.903 -963.528C473.498 -986.459 561.478 -935.671 584.413 -850.089C607.348 -764.506 556.552 -676.538 470.958 -653.606C424.116 -641.057 376.559 -650.586 339.34 -675.813C317.189 -690.827 258.084 -687 232.234 -680.074Z" fill="url(#paint15_linear_322_94)"/>
<path d="M217.307 -1014.71C227.118 -978.096 205.389 -940.465 168.773 -930.656C132.158 -920.846 94.5217 -942.572 84.7106 -979.182C74.8995 -1015.79 96.6287 -1053.42 133.244 -1063.23C169.86 -1073.04 207.496 -1051.32 217.307 -1014.71Z" fill="url(#paint16_linear_322_94)"/>
<path d="M44.5056 -1147.33C22.0251 -1134.36 -13.7002 -1103.1 -18.4627 -1077.59C-26.1568 -1036.37 -51.1464 -998.634 -90.3131 -976.024C-161.444 -934.963 -252.399 -959.33 -293.467 -1030.45C-334.534 -1101.57 -310.163 -1192.51 -239.032 -1233.58C-200.417 -1255.87 -155.961 -1258.88 -116.815 -1245.59C-92.0337 -1237.18 -46.734 -1253.01 -24.0703 -1266.09C-2.43444 -1278.58 39.5033 -1314.87 44.497 -1339.34C52.7111 -1379.6 77.4801 -1416.29 115.868 -1438.45C186.999 -1479.51 277.954 -1455.14 319.021 -1384.02C360.089 -1312.9 335.718 -1221.96 264.586 -1180.9C225.66 -1158.43 180.796 -1155.55 141.42 -1169.21C117.986 -1177.34 65.987 -1159.73 44.5056 -1147.33Z" fill="url(#paint17_linear_322_94)"/>
<path d="M-49.1475 -1443.35C-31.5797 -1412.93 -42.0052 -1374.02 -72.4335 -1356.46C-102.862 -1338.89 -141.77 -1349.32 -159.338 -1379.74C-176.906 -1410.16 -166.48 -1449.07 -136.052 -1466.63C-105.624 -1484.2 -66.7152 -1473.77 -49.1475 -1443.35Z" fill="url(#paint18_linear_322_94)"/>
<path d="M-141.448 -1579.63C-164.63 -1573.42 -204.014 -1554.06 -214.374 -1532.41C-231.11 -1497.44 -262.457 -1469.72 -302.846 -1458.9C-376.196 -1439.25 -451.591 -1482.77 -471.245 -1556.11C-490.899 -1629.45 -447.37 -1704.84 -374.02 -1724.49C-334.2 -1735.16 -293.779 -1727.21 -261.999 -1705.98C-241.881 -1692.54 -197.638 -1695.84 -174.267 -1702.1C-151.956 -1708.08 -105.821 -1730.44 -95.5035 -1751.11C-78.5328 -1785.1 -47.6328 -1811.93 -8.04737 -1822.54C65.3029 -1842.19 140.698 -1798.67 160.352 -1725.33C180.006 -1651.99 136.477 -1576.6 63.1266 -1556.95C22.9853 -1546.2 -17.7684 -1554.36 -49.6636 -1575.98C-68.6461 -1588.85 -119.297 -1585.57 -141.448 -1579.63Z" fill="url(#paint19_linear_322_94)"/>
<path d="M-154.24 -1866.4C-145.833 -1835.02 -164.454 -1802.78 -195.831 -1794.37C-227.209 -1785.96 -259.461 -1804.58 -267.869 -1835.95C-276.277 -1867.33 -257.656 -1899.58 -226.278 -1907.98C-194.9 -1916.39 -162.648 -1897.77 -154.24 -1866.4Z" fill="url(#paint20_linear_322_94)"/>
<path d="M-23.5994 2094.81C-23.5994 2110.38 -36.2212 2123 -51.791 2123C-67.3608 2123 -79.9827 2110.38 -79.9827 2094.81C-79.9827 2079.24 -67.3608 2066.62 -51.791 2066.62C-36.2212 2066.62 -23.5994 2079.24 -23.5994 2094.81Z" fill="url(#paint21_linear_322_94)"/>
</g>
<defs>
<linearGradient id="paint0_linear_322_94" x1="238" y1="0" x2="238" y2="583" gradientUnits="userSpaceOnUse">
<stop stop-color="#599AA6"/>
<stop offset="1" stop-color="#78CFE2"/>
</linearGradient>
<linearGradient id="paint1_linear_322_94" x1="48" y1="-1910" x2="48" y2="2123" gradientUnits="userSpaceOnUse">
<stop stop-color="#589BA6"/>
<stop offset="1" stop-color="#78CFE2"/>
</linearGradient>
<linearGradient id="paint2_linear_322_94" x1="48" y1="-1910" x2="48" y2="2123" gradientUnits="userSpaceOnUse">
<stop stop-color="#589BA6"/>
<stop offset="1" stop-color="#78CFE2"/>
</linearGradient>
<linearGradient id="paint3_linear_322_94" x1="48" y1="-1910" x2="48" y2="2123" gradientUnits="userSpaceOnUse">
<stop stop-color="#589BA6"/>
<stop offset="1" stop-color="#78CFE2"/>
</linearGradient>
<linearGradient id="paint4_linear_322_94" x1="48" y1="-1910" x2="48" y2="2123" gradientUnits="userSpaceOnUse">
<stop stop-color="#589BA6"/>
<stop offset="1" stop-color="#78CFE2"/>
</linearGradient>
<linearGradient id="paint5_linear_322_94" x1="48" y1="-1910" x2="48" y2="2123" gradientUnits="userSpaceOnUse">
<stop stop-color="#589BA6"/>
<stop offset="1" stop-color="#78CFE2"/>
</linearGradient>
<linearGradient id="paint6_linear_322_94" x1="48" y1="-1910" x2="48" y2="2123" gradientUnits="userSpaceOnUse">
<stop stop-color="#589BA6"/>
<stop offset="1" stop-color="#78CFE2"/>
</linearGradient>
<linearGradient id="paint7_linear_322_94" x1="48" y1="-1910" x2="48" y2="2123" gradientUnits="userSpaceOnUse">
<stop stop-color="#589BA6"/>
<stop offset="1" stop-color="#78CFE2"/>
</linearGradient>
<linearGradient id="paint8_linear_322_94" x1="48" y1="-1910" x2="48" y2="2123" gradientUnits="userSpaceOnUse">
<stop stop-color="#589BA6"/>
<stop offset="1" stop-color="#78CFE2"/>
</linearGradient>
<linearGradient id="paint9_linear_322_94" x1="48" y1="-1910" x2="48" y2="2123" gradientUnits="userSpaceOnUse">
<stop stop-color="#589BA6"/>
<stop offset="1" stop-color="#78CFE2"/>
</linearGradient>
<linearGradient id="paint10_linear_322_94" x1="48" y1="-1910" x2="48" y2="2123" gradientUnits="userSpaceOnUse">
<stop stop-color="#589BA6"/>
<stop offset="1" stop-color="#78CFE2"/>
</linearGradient>
<linearGradient id="paint11_linear_322_94" x1="48" y1="-1910" x2="48" y2="2123" gradientUnits="userSpaceOnUse">
<stop stop-color="#589BA6"/>
<stop offset="1" stop-color="#78CFE2"/>
</linearGradient>
<linearGradient id="paint12_linear_322_94" x1="48" y1="-1910" x2="48" y2="2123" gradientUnits="userSpaceOnUse">
<stop stop-color="#589BA6"/>
<stop offset="1" stop-color="#78CFE2"/>
</linearGradient>
<linearGradient id="paint13_linear_322_94" x1="48" y1="-1910" x2="48" y2="2123" gradientUnits="userSpaceOnUse">
<stop stop-color="#589BA6"/>
<stop offset="1" stop-color="#78CFE2"/>
</linearGradient>
<linearGradient id="paint14_linear_322_94" x1="48" y1="-1910" x2="48" y2="2123" gradientUnits="userSpaceOnUse">
<stop stop-color="#589BA6"/>
<stop offset="1" stop-color="#78CFE2"/>
</linearGradient>
<linearGradient id="paint15_linear_322_94" x1="48" y1="-1910" x2="48" y2="2123" gradientUnits="userSpaceOnUse">
<stop stop-color="#589BA6"/>
<stop offset="1" stop-color="#78CFE2"/>
</linearGradient>
<linearGradient id="paint16_linear_322_94" x1="48" y1="-1910" x2="48" y2="2123" gradientUnits="userSpaceOnUse">
<stop stop-color="#589BA6"/>
<stop offset="1" stop-color="#78CFE2"/>
</linearGradient>
<linearGradient id="paint17_linear_322_94" x1="48" y1="-1910" x2="48" y2="2123" gradientUnits="userSpaceOnUse">
<stop stop-color="#589BA6"/>
<stop offset="1" stop-color="#78CFE2"/>
</linearGradient>
<linearGradient id="paint18_linear_322_94" x1="48" y1="-1910" x2="48" y2="2123" gradientUnits="userSpaceOnUse">
<stop stop-color="#589BA6"/>
<stop offset="1" stop-color="#78CFE2"/>
</linearGradient>
<linearGradient id="paint19_linear_322_94" x1="48" y1="-1910" x2="48" y2="2123" gradientUnits="userSpaceOnUse">
<stop stop-color="#589BA6"/>
<stop offset="1" stop-color="#78CFE2"/>
</linearGradient>
<linearGradient id="paint20_linear_322_94" x1="48" y1="-1910" x2="48" y2="2123" gradientUnits="userSpaceOnUse">
<stop stop-color="#589BA6"/>
<stop offset="1" stop-color="#78CFE2"/>
</linearGradient>
<linearGradient id="paint21_linear_322_94" x1="48" y1="-1910" x2="48" y2="2123" gradientUnits="userSpaceOnUse">
<stop stop-color="#589BA6"/>
<stop offset="1" stop-color="#78CFE2"/>
</linearGradient>
<clipPath id="clip0_322_94">
<rect width="372" height="421" fill="white"/>
</clipPath>
</defs>
</svg>
